<svg id="SvgjsSvg1006" width="1950.703125" height="1114.890625" xmlns="http://www.w3.org/2000/svg" version="1.1" xmlns:xlink="http://www.w3.org/1999/xlink" xmlns:svgjs="http://svgjs.com/svgjs"><defs id="SvgjsDefs1007"><marker id="SvgjsMarker1018" markerWidth="16" markerHeight="12" refX="16" refY="6" viewBox="0 0 16 12" orient="auto" markerUnits="userSpaceOnUse" stroke-dasharray="0,0"><path id="SvgjsPath1019" d="M0,2 L14,6 L0,11 L0,2" fill="#323232" stroke="#323232" stroke-width="2"></path></marker><marker id="SvgjsMarker1036" markerWidth="16" markerHeight="12" refX="16" refY="6" viewBox="0 0 16 12" orient="auto" markerUnits="userSpaceOnUse" stroke-dasharray="0,0"><path id="SvgjsPath1037" d="M0,2 L14,6 L0,11 L0,2" fill="#323232" stroke="#323232" stroke-width="2"></path></marker><marker id="SvgjsMarker1054" markerWidth="16" markerHeight="12" refX="16" refY="6" viewBox="0 0 16 12" orient="auto" markerUnits="userSpaceOnUse" stroke-dasharray="0,0"><path id="SvgjsPath1055" d="M0,2 L14,6 L0,11 L0,2" fill="#323232" stroke="#323232" stroke-width="2"></path></marker><marker id="SvgjsMarker1064" markerWidth="16" markerHeight="12" refX="16" refY="6" viewBox="0 0 16 12" orient="auto" markerUnits="userSpaceOnUse" stroke-dasharray="0,0"><path id="SvgjsPath1065" d="M0,2 L14,6 L0,11 L0,2" fill="#323232" stroke="#323232" stroke-width="2"></path></marker><marker id="SvgjsMarker1074" markerWidth="16" markerHeight="12" refX="16" refY="6" viewBox="0 0 16 12" orient="auto" markerUnits="userSpaceOnUse" stroke-dasharray="0,0"><path id="SvgjsPath1075" d="M0,2 L14,6 L0,11 L0,2" fill="#323232" stroke="#323232" stroke-width="2"></path></marker><marker id="SvgjsMarker1084" markerWidth="16" markerHeight="12" refX="16" refY="6" viewBox="0 0 16 12" orient="auto" markerUnits="userSpaceOnUse" stroke-dasharray="0,0"><path id="SvgjsPath1085" d="M0,2 L14,6 L0,11 L0,2" fill="#323232" stroke="#323232" stroke-width="2"></path></marker><marker id="SvgjsMarker1096" markerWidth="16" markerHeight="12" refX="16" refY="6" viewBox="0 0 16 12" orient="auto" markerUnits="userSpaceOnUse" stroke-dasharray="0,0"><path id="SvgjsPath1097" d="M0,2 L14,6 L0,11 L0,2" fill="#323232" stroke="#323232" stroke-width="2"></path></marker><marker id="SvgjsMarker1112" markerWidth="16" markerHeight="12" refX="16" refY="6" viewBox="0 0 16 12" orient="auto" markerUnits="userSpaceOnUse" stroke-dasharray="0,0"><path id="SvgjsPath1113" d="M0,2 L14,6 L0,11 L0,2" fill="#323232" stroke="#323232" stroke-width="2"></path></marker><marker id="SvgjsMarker1132" markerWidth="16" markerHeight="12" refX="16" refY="6" viewBox="0 0 16 12" orient="auto" markerUnits="userSpaceOnUse" stroke-dasharray="0,0"><path id="SvgjsPath1133" d="M0,2 L14,6 L0,11 L0,2" fill="#323232" stroke="#323232" stroke-width="2"></path></marker><marker id="SvgjsMarker1148" markerWidth="16" markerHeight="12" refX="16" refY="6" viewBox="0 0 16 12" orient="auto" markerUnits="userSpaceOnUse" stroke-dasharray="0,0"><path id="SvgjsPath1149" d="M0,2 L14,6 L0,11 L0,2" fill="#323232" stroke="#323232" stroke-width="2"></path></marker><marker id="SvgjsMarker1162" markerWidth="16" markerHeight="12" refX="16" refY="6" viewBox="0 0 16 12" orient="auto" markerUnits="userSpaceOnUse" stroke-dasharray="0,0"><path id="SvgjsPath1163" d="M0,2 L14,6 L0,11 L0,2" fill="#323232" stroke="#323232" stroke-width="2"></path></marker><marker id="SvgjsMarker1178" markerWidth="16" markerHeight="12" refX="16" refY="6" viewBox="0 0 16 12" orient="auto" markerUnits="userSpaceOnUse" stroke-dasharray="0,0"><path id="SvgjsPath1179" d="M0,2 L14,6 L0,11 L0,2" fill="#323232" stroke="#323232" stroke-width="2"></path></marker><marker id="SvgjsMarker1188" markerWidth="16" markerHeight="12" refX="16" refY="6" viewBox="0 0 16 12" orient="auto" markerUnits="userSpaceOnUse" stroke-dasharray="0,0"><path id="SvgjsPath1189" d="M0,2 L14,6 L0,11 L0,2" fill="#323232" stroke="#323232" stroke-width="2"></path></marker><marker id="SvgjsMarker1198" markerWidth="16" markerHeight="12" refX="16" refY="6" viewBox="0 0 16 12" orient="auto" markerUnits="userSpaceOnUse" stroke-dasharray="0,0"><path id="SvgjsPath1199" d="M0,2 L14,6 L0,11 L0,2" fill="#323232" stroke="#323232" stroke-width="2"></path></marker><marker id="SvgjsMarker1213" markerWidth="16" markerHeight="12" refX="16" refY="6" viewBox="0 0 16 12" orient="auto" markerUnits="userSpaceOnUse" stroke-dasharray="0,0"><path id="SvgjsPath1214" d="M0,2 L14,6 L0,11 L0,2" fill="#323232" stroke="#323232" stroke-width="2"></path></marker><marker id="SvgjsMarker1237" markerWidth="16" markerHeight="12" refX="16" refY="6" viewBox="0 0 16 12" orient="auto" markerUnits="userSpaceOnUse" stroke-dasharray="0,0"><path id="SvgjsPath1238" d="M0,2 L14,6 L0,11 L0,2" fill="#323232" stroke="#323232" stroke-width="2"></path></marker><marker id="SvgjsMarker1251" markerWidth="16" markerHeight="12" refX="16" refY="6" viewBox="0 0 16 12" orient="auto" markerUnits="userSpaceOnUse" stroke-dasharray="0,0"><path id="SvgjsPath1252" d="M0,2 L14,6 L0,11 L0,2" fill="#323232" stroke="#323232" stroke-width="2"></path></marker><marker id="SvgjsMarker1261" markerWidth="16" markerHeight="12" refX="16" refY="6" viewBox="0 0 16 12" orient="auto" markerUnits="userSpaceOnUse" stroke-dasharray="0,0"><path id="SvgjsPath1262" d="M0,2 L14,6 L0,11 L0,2" fill="#323232" stroke="#323232" stroke-width="2"></path></marker><marker id="SvgjsMarker1304" markerWidth="16" markerHeight="12" refX="16" refY="6" viewBox="0 0 16 12" orient="auto" markerUnits="userSpaceOnUse" stroke-dasharray="0,0"><path id="SvgjsPath1305" d="M0,2 L14,6 L0,11 L0,2" fill="#323232" stroke="#323232" stroke-width="2"></path></marker><marker id="SvgjsMarker1314" markerWidth="16" markerHeight="12" refX="16" refY="6" viewBox="0 0 16 12" orient="auto" markerUnits="userSpaceOnUse" stroke-dasharray="0,0"><path id="SvgjsPath1315" d="M0,2 L14,6 L0,11 L0,2" fill="#323232" stroke="#323232" stroke-width="2"></path></marker><marker id="SvgjsMarker1330" markerWidth="16" markerHeight="12" refX="16" refY="6" viewBox="0 0 16 12" orient="auto" markerUnits="userSpaceOnUse" stroke-dasharray="0,0"><path id="SvgjsPath1331" d="M0,2 L14,6 L0,11 L0,2" fill="#323232" stroke="#323232" stroke-width="2"></path></marker><marker id="SvgjsMarker1334" markerWidth="16" markerHeight="12" refX="16" refY="6" viewBox="0 0 16 12" orient="auto" markerUnits="userSpaceOnUse" stroke-dasharray="0,0"><path id="SvgjsPath1335" d="M0,2 L14,6 L0,11 L0,2" fill="#323232" stroke="#323232" stroke-width="2"></path></marker><marker id="SvgjsMarker1344" markerWidth="16" markerHeight="12" refX="16" refY="6" viewBox="0 0 16 12" orient="auto" markerUnits="userSpaceOnUse" stroke-dasharray="0,0"><path id="SvgjsPath1345" d="M0,2 L14,6 L0,11 L0,2" fill="#323232" stroke="#323232" stroke-width="2"></path></marker></defs><g id="SvgjsG1008" transform="translate(726.4904990842496,711.1978021978022)"><path id="SvgjsPath1009" d="M 0 4Q 0 0 4 0L 96 0Q 100 0 100 4L 100 66Q 100 70 96 70L 4 70Q 0 70 0 66Z" stroke="rgba(50,50,50,1)" stroke-width="2" fill-opacity="1" fill="#ffffff"></path><g id="SvgjsG1010"><text id="SvgjsText1011" font-family="微软雅黑" text-anchor="middle" font-size="13px" width="80px" fill="#323232" font-weight="400" align="middle" lineHeight="125%" anchor="middle" family="微软雅黑" size="13px" weight="400" font-style="" opacity="1" y="17.375" transform="rotate(0)"><tspan id="SvgjsTspan1012" dy="16" x="50"><tspan id="SvgjsTspan1013" style="text-decoration:;">构造函数</tspan></tspan><tspan id="SvgjsTspan1014" dy="16" x="50"><tspan id="SvgjsTspan1015" style="text-decoration:;">constructor</tspan></tspan></text></g></g><g id="SvgjsG1016"><path id="SvgjsPath1017" d="M840.0143086080587 779.7692307692305C 925.4282280219779 867.1186813186812 968.1351877289376 910.7934065934064 1053.5491071428569 998.1428571428571" stroke="#323232" stroke-width="2" fill="none" marker-end="url(#SvgjsMarker1018)"></path></g><g id="SvgjsG1020" transform="translate(915.6443452380953,847.7619047619048)"><path id="SvgjsPath1021" d="M 0 0L 120 0L 120 40L 0 40Z" stroke="none" fill="none"></path><g id="SvgjsG1022"><text id="SvgjsText1023" font-family="微软雅黑" text-anchor="middle" font-size="13px" width="120px" fill="#323232" font-weight="400" align="middle" lineHeight="125%" anchor="middle" family="微软雅黑" size="13px" weight="400" font-style="" opacity="1" y="10.375" transform="rotate(0)"><tspan id="SvgjsTspan1024" dy="16" x="60"><tspan id="SvgjsTspan1025" style="text-decoration:;">new 运算符</tspan></tspan></text></g></g><g id="SvgjsG1026" transform="translate(1067.0729166666663,1019.9047619047617)"><path id="SvgjsPath1027" d="M 0 4Q 0 0 4 0L 96 0Q 100 0 100 4L 100 66Q 100 70 96 70L 4 70Q 0 70 0 66Z" stroke="rgba(50,50,50,1)" stroke-width="2" fill-opacity="1" fill="#ffffff"></path><g id="SvgjsG1028"><text id="SvgjsText1029" font-family="微软雅黑" text-anchor="middle" font-size="13px" width="80px" fill="#323232" font-weight="400" align="middle" lineHeight="125%" anchor="middle" family="微软雅黑" size="13px" weight="400" font-style="" opacity="1" y="17.375" transform="rotate(0)"><tspan id="SvgjsTspan1030" dy="16" x="50"><tspan id="SvgjsTspan1031" style="text-decoration:;">实例</tspan></tspan><tspan id="SvgjsTspan1032" dy="16" x="50"><tspan id="SvgjsTspan1033" style="text-decoration:;">instances</tspan></tspan></text></g></g><g id="SvgjsG1034"><path id="SvgjsPath1035" d="M1022.2408915489277 1011C 939.7673523896742 927.5333333333333 898.5305828100475 885.8 816.0570436507938 802.3333333333335" stroke="#323232" stroke-width="2" fill="none" marker-end="url(#SvgjsMarker1036)"></path></g><g id="SvgjsG1038" transform="translate(795.6443452380953,903.7619047619046)"><path id="SvgjsPath1039" d="M 0 0L 120 0L 120 40L 0 40Z" stroke="none" fill="none"></path><g id="SvgjsG1040"><text id="SvgjsText1041" font-family="微软雅黑" text-anchor="middle" font-size="13px" width="120px" fill="#323232" font-weight="400" align="middle" lineHeight="125%" anchor="middle" family="微软雅黑" size="13px" weight="400" font-style="" opacity="1" y="10.375" transform="rotate(0)"><tspan id="SvgjsTspan1042" dy="16" x="60"><tspan id="SvgjsTspan1043" style="text-decoration:;">constructor属性</tspan></tspan></text></g></g><g id="SvgjsG1044" transform="translate(1373.6919642857126,704.5714285714288)"><path id="SvgjsPath1045" d="M 0 4Q 0 0 4 0L 96 0Q 100 0 100 4L 100 66Q 100 70 96 70L 4 70Q 0 70 0 66Z" stroke="rgba(50,50,50,1)" stroke-width="2" fill-opacity="1" fill="#ffffff"></path><g id="SvgjsG1046"><text id="SvgjsText1047" font-family="微软雅黑" text-anchor="middle" font-size="13px" width="80px" fill="#323232" font-weight="400" align="middle" lineHeight="125%" anchor="middle" family="微软雅黑" size="13px" weight="400" font-style="" opacity="1" y="17.375" transform="rotate(0)"><tspan id="SvgjsTspan1048" dy="16" x="50"><tspan id="SvgjsTspan1049" style="text-decoration:;">原型对象</tspan></tspan><tspan id="SvgjsTspan1050" dy="16" x="50"><tspan id="SvgjsTspan1051" style="text-decoration:;">prototype</tspan></tspan></text></g></g><g id="SvgjsG1052"><path id="SvgjsPath1053" d="M838.40625 728L1087.40625 728L1087.40625 728L1336.4062499999998 728" stroke="#323232" stroke-width="2" fill="none" marker-end="url(#SvgjsMarker1054)"></path></g><g id="SvgjsG1056" transform="translate(962.6443452380954,690)"><path id="SvgjsPath1057" d="M 0 0L 173 0L 173 38L 0 38Z" stroke="none" fill="none"></path><g id="SvgjsG1058"><text id="SvgjsText1059" font-family="微软雅黑" text-anchor="middle" font-size="13px" width="173px" fill="#323232" font-weight="400" align="middle" lineHeight="125%" anchor="middle" family="微软雅黑" size="13px" weight="400" font-style="" opacity="1" y="9.375" transform="rotate(0)"><tspan id="SvgjsTspan1060" dy="16" x="86.5"><tspan id="SvgjsTspan1061" style="text-decoration:;">构造函数的prototype属性</tspan></tspan></text></g></g><g id="SvgjsG1062"><path id="SvgjsPath1063" d="M1342.1205357142856 754L1089.7633928571427 754L1089.7633928571427 754L837.40625 754" stroke="#323232" stroke-width="2" fill="none" marker-end="url(#SvgjsMarker1064)"></path></g><g id="SvgjsG1066" transform="translate(921.1443452380954,749.8809523809524)"><path id="SvgjsPath1067" d="M 0 0L 256 0L 256 44.11904761904759L 0 44.11904761904759Z" stroke="none" fill="none"></path><g id="SvgjsG1068"><text id="SvgjsText1069" font-family="微软雅黑" text-anchor="middle" font-size="13px" width="256px" fill="#323232" font-weight="400" align="middle" lineHeight="125%" anchor="middle" family="微软雅黑" size="13px" weight="400" font-style="" opacity="1" y="12.434523809523796" transform="rotate(0)"><tspan id="SvgjsTspan1070" dy="16" x="128"><tspan id="SvgjsTspan1071" style="text-decoration:;">原型对象的constructor属性</tspan></tspan></text></g></g><g id="SvgjsG1072"><path id="SvgjsPath1073" d="M1194.1205357142846 1020.9999999999993C 1272.1776785714278 933.571428571428 1311.2062499999995 889.8571428571424 1389.2633928571427 802.4285714285711" stroke="#323232" stroke-width="2" fill="none" marker-end="url(#SvgjsMarker1074)"></path></g><g id="SvgjsG1076" transform="translate(1300.0014880952383,903.7619047619046)"><path id="SvgjsPath1077" d="M 0 0L 120 0L 120 40L 0 40Z" stroke="none" fill="none"></path><g id="SvgjsG1078"><text id="SvgjsText1079" font-family="微软雅黑" text-anchor="middle" font-size="13px" width="120px" fill="#323232" font-weight="400" align="middle" lineHeight="125%" anchor="middle" family="微软雅黑" size="13px" weight="400" font-style="" opacity="1" y="10.375" transform="rotate(0)"><tspan id="SvgjsTspan1080" dy="16" x="60"><tspan id="SvgjsTspan1081" style="text-decoration:;">__proto__属性</tspan></tspan></text></g></g><g id="SvgjsG1082"><path id="SvgjsPath1083" d="M702.40625 706C 621.60625 635.9999999999999 581.20625 600.9999999999999 500.40625 530.9999999999999" stroke="#323232" stroke-width="2" fill="none" marker-end="url(#SvgjsMarker1084)"></path></g><g id="SvgjsG1086" transform="translate(382.40625,440.9999999999999)"><path id="SvgjsPath1087" d="M 0 4Q 0 0 4 0L 116 0Q 120 0 120 4L 120 67Q 120 71 116 71L 4 71Q 0 71 0 67Z" stroke="rgba(50,50,50,1)" stroke-width="2" fill-opacity="1" fill="#ffffff"></path><g id="SvgjsG1088"><text id="SvgjsText1089" font-family="微软雅黑" text-anchor="middle" font-size="13px" width="100px" fill="#323232" font-weight="400" align="middle" lineHeight="125%" anchor="middle" family="微软雅黑" size="13px" weight="400" font-style="" opacity="1" y="17.875" transform="rotate(0)"><tspan id="SvgjsTspan1090" dy="16" x="60"><tspan id="SvgjsTspan1091" style="text-decoration:;">Function构造函</tspan></tspan><tspan id="SvgjsTspan1092" dy="16" x="60"><tspan id="SvgjsTspan1093" style="text-decoration:;">数</tspan></tspan></text></g></g><g id="SvgjsG1094"><path id="SvgjsPath1095" d="M519.40625 517.9999999999999C 602.60625 589.1999999999999 644.20625 624.8 727.40625 696" stroke="#323232" stroke-width="2" fill="none" marker-end="url(#SvgjsMarker1096)"></path></g><g id="SvgjsG1098" transform="translate(594.40625,552.9999999999999)"><path id="SvgjsPath1099" d="M 0 0L 120 0L 120 40L 0 40Z" stroke="none" fill="none"></path><g id="SvgjsG1100"><text id="SvgjsText1101" font-family="微软雅黑" text-anchor="middle" font-size="13px" width="120px" fill="#323232" font-weight="400" align="middle" lineHeight="125%" anchor="middle" family="微软雅黑" size="13px" weight="400" font-style="" opacity="1" y="10.375" transform="rotate(0)"><tspan id="SvgjsTspan1102" dy="16" x="60"><tspan id="SvgjsTspan1103" style="text-decoration:;">new 运算符</tspan></tspan></text></g></g><g id="SvgjsG1104" transform="translate(484.6443452380953,614.7619047619045)"><path id="SvgjsPath1105" d="M 0 0L 120 0L 120 40L 0 40Z" stroke="none" fill="none"></path><g id="SvgjsG1106"><text id="SvgjsText1107" font-family="微软雅黑" text-anchor="middle" font-size="13px" width="120px" fill="#323232" font-weight="400" align="middle" lineHeight="125%" anchor="middle" family="微软雅黑" size="13px" weight="400" font-style="" opacity="1" y="10.375" transform="rotate(0)"><tspan id="SvgjsTspan1108" dy="16" x="60"><tspan id="SvgjsTspan1109" style="text-decoration:;">constructor属性</tspan></tspan></text></g></g><g id="SvgjsG1110"><path id="SvgjsPath1111" d="M518.40625 456.9999999999999L686.90625 456.9999999999999L686.90625 456.9999999999999L855.40625 456.9999999999999" stroke="#323232" stroke-width="2" fill="none" marker-end="url(#SvgjsMarker1112)"></path></g><g id="SvgjsG1114" transform="translate(594.40625,414.9999999999999)"><path id="SvgjsPath1115" d="M 0 0L 120 0L 120 40L 0 40Z" stroke="none" fill="none"></path><g id="SvgjsG1116"><text id="SvgjsText1117" font-family="微软雅黑" text-anchor="middle" font-size="13px" width="120px" fill="#323232" font-weight="400" align="middle" lineHeight="125%" anchor="middle" family="微软雅黑" size="13px" weight="400" font-style="" opacity="1" y="10.375" transform="rotate(0)"><tspan id="SvgjsTspan1118" dy="16" x="60"><tspan id="SvgjsTspan1119" style="text-decoration:;">prototype属性</tspan></tspan></text></g></g><g id="SvgjsG1120" transform="translate(890.3110119047622,423.83333333333326)"><path id="SvgjsPath1121" d="M 0 4Q 0 0 4 0L 141.33333333333314 0Q 145.33333333333314 0 145.33333333333314 4L 145.33333333333314 66Q 145.33333333333314 70 141.33333333333314 70L 4 70Q 0 70 0 66Z" stroke="rgba(50,50,50,1)" stroke-width="2" fill-opacity="1" fill="#ffffff"></path><g id="SvgjsG1122"><text id="SvgjsText1123" font-family="微软雅黑" text-anchor="middle" font-size="13px" width="126px" fill="#323232" font-weight="400" align="middle" lineHeight="125%" anchor="middle" family="微软雅黑" size="13px" weight="400" font-style="" opacity="1" y="9.375" transform="rotate(0)"><tspan id="SvgjsTspan1124" dy="16" x="73"><tspan id="SvgjsTspan1125" style="text-decoration:;">内置的原型对象</tspan></tspan><tspan id="SvgjsTspan1126" dy="16" x="73"><tspan id="SvgjsTspan1127" style="text-decoration:;">function( )</tspan></tspan><tspan id="SvgjsTspan1128" dy="16" x="73"><tspan id="SvgjsTspan1129" style="text-decoration:;">typeof 值为function</tspan></tspan></text></g></g><g id="SvgjsG1130"><path id="SvgjsPath1131" d="M1021.9062499999998 414.9999999999999C 1072.90625 349.39999999999986 1098.4062499999998 316.5999999999999 1149.4062499999998 250.99999999999994" stroke="#323232" stroke-width="2" fill="none" marker-end="url(#SvgjsMarker1132)"></path></g><g id="SvgjsG1134" transform="translate(1078.6443452380954,335)"><path id="SvgjsPath1135" d="M 0 0L 120 0L 120 40L 0 40Z" stroke="none" fill="none"></path><g id="SvgjsG1136"><text id="SvgjsText1137" font-family="微软雅黑" text-anchor="middle" font-size="13px" width="120px" fill="#323232" font-weight="400" align="middle" lineHeight="125%" anchor="middle" family="微软雅黑" size="13px" weight="400" font-style="" opacity="1" y="10.375" transform="rotate(0)"><tspan id="SvgjsTspan1138" dy="16" x="60"><tspan id="SvgjsTspan1139" style="text-decoration:;">__proto__属性</tspan></tspan></text></g></g><g id="SvgjsG1140" transform="translate(869.4904990842496,606)"><path id="SvgjsPath1141" d="M 0 0L 120 0L 120 40L 0 40Z" stroke="none" fill="none"></path><g id="SvgjsG1142"><text id="SvgjsText1143" font-family="微软雅黑" text-anchor="middle" font-size="13px" width="120px" fill="#323232" font-weight="400" align="middle" lineHeight="125%" anchor="middle" family="微软雅黑" size="13px" weight="400" font-style="" opacity="1" y="10.375" transform="rotate(0)"><tspan id="SvgjsTspan1144" dy="16" x="60"><tspan id="SvgjsTspan1145" style="text-decoration:;">__proto__属性</tspan></tspan></text></g></g><g id="SvgjsG1146"><path id="SvgjsPath1147" d="M821.9062499999999 680C 872.90625 614.3999999999999 898.4062499999998 581.5999999999999 949.4062499999998 516" stroke="#323232" stroke-width="2" fill="none" marker-end="url(#SvgjsMarker1148)"></path></g><g id="SvgjsG1150" transform="translate(1140.40625,166)"><path id="SvgjsPath1151" d="M 0 4Q 0 0 4 0L 96 0Q 100 0 100 4L 100 66Q 100 70 96 70L 4 70Q 0 70 0 66Z" stroke="rgba(50,50,50,1)" stroke-width="2" fill-opacity="1" fill="#ffffff"></path><g id="SvgjsG1152"><text id="SvgjsText1153" font-family="微软雅黑" text-anchor="middle" font-size="13px" width="80px" fill="#323232" font-weight="400" align="middle" lineHeight="125%" anchor="middle" family="微软雅黑" size="13px" weight="400" font-style="" opacity="1" y="9.375" transform="rotate(0)"><tspan id="SvgjsTspan1154" dy="16" x="50"><tspan id="SvgjsTspan1155" style="text-decoration:;">内置的对象原</tspan></tspan><tspan id="SvgjsTspan1156" dy="16" x="50"><tspan id="SvgjsTspan1157" style="text-decoration:;">型</tspan></tspan><tspan id="SvgjsTspan1158" dy="16" x="50"><tspan id="SvgjsTspan1159" style="text-decoration:;">object {  }</tspan></tspan></text></g></g><g id="SvgjsG1160"><path id="SvgjsPath1161" d="M1235.90625 152.99999999999994C 1262.90625 117.39999999999998 1276.40625 99.59999999999997 1303.40625 64" stroke="#323232" stroke-width="2" fill="none" marker-end="url(#SvgjsMarker1162)"></path></g><g id="SvgjsG1164" transform="translate(1265.40625,25)"><path id="SvgjsPath1165" d="M 0 0L 120 0L 120 40L 0 40Z" stroke="none" fill="none"></path><g id="SvgjsG1166"><text id="SvgjsText1167" font-family="微软雅黑" text-anchor="middle" font-size="13px" width="120px" fill="#323232" font-weight="400" align="middle" lineHeight="125%" anchor="middle" family="微软雅黑" size="13px" weight="400" font-style="" opacity="1" y="10.375" transform="rotate(0)"><tspan id="SvgjsTspan1168" dy="16" x="60"><tspan id="SvgjsTspan1169" style="text-decoration:;">null</tspan></tspan></text></g></g><g id="SvgjsG1170" transform="translate(658.40625,159.5)"><path id="SvgjsPath1171" d="M 0 4Q 0 0 4 0L 120 0Q 124 0 124 4L 124 65Q 124 69 120 69L 4 69Q 0 69 0 65Z" stroke="rgba(50,50,50,1)" stroke-width="2" fill-opacity="1" fill="#ffffff"></path><g id="SvgjsG1172"><text id="SvgjsText1173" font-family="微软雅黑" text-anchor="middle" font-size="13px" width="104px" fill="#323232" font-weight="400" align="middle" lineHeight="125%" anchor="middle" family="微软雅黑" size="13px" weight="400" font-style="" opacity="1" y="24.875" transform="rotate(0)"><tspan id="SvgjsTspan1174" dy="16" x="62"><tspan id="SvgjsTspan1175" style="text-decoration:;">Object构造函数</tspan></tspan></text></g></g><g id="SvgjsG1176"><path id="SvgjsPath1177" d="M782.40625 237C 835.20625 303.79999999999995 861.60625 337.19999999999993 914.40625 403.9999999999999" stroke="#323232" stroke-width="2" fill="none" marker-end="url(#SvgjsMarker1178)"></path></g><g id="SvgjsG1180" transform="translate(826.4904990842496,285)"><path id="SvgjsPath1181" d="M 0 0L 120 0L 120 40L 0 40Z" stroke="none" fill="none"></path><g id="SvgjsG1182"><text id="SvgjsText1183" font-family="微软雅黑" text-anchor="middle" font-size="13px" width="120px" fill="#323232" font-weight="400" align="middle" lineHeight="125%" anchor="middle" family="微软雅黑" size="13px" weight="400" font-style="" opacity="1" y="10.375" transform="rotate(0)"><tspan id="SvgjsTspan1184" dy="16" x="60"><tspan id="SvgjsTspan1185" style="text-decoration:;">new 运算符</tspan></tspan></text></g></g><g id="SvgjsG1186"><path id="SvgjsPath1187" d="M801.40625 174L958.90625 174L958.90625 174L1116.40625 174" stroke="#323232" stroke-width="2" fill="none" marker-end="url(#SvgjsMarker1188)"></path></g><g id="SvgjsG1190" transform="translate(890.3110119047622,126.5)"><path id="SvgjsPath1191" d="M 0 0L 120 0L 120 40L 0 40Z" stroke="none" fill="none"></path><g id="SvgjsG1192"><text id="SvgjsText1193" font-family="微软雅黑" text-anchor="middle" font-size="13px" width="120px" fill="#323232" font-weight="400" align="middle" lineHeight="125%" anchor="middle" family="微软雅黑" size="13px" weight="400" font-style="" opacity="1" y="10.375" transform="rotate(0)"><tspan id="SvgjsTspan1194" dy="16" x="60"><tspan id="SvgjsTspan1195" style="text-decoration:;">prototype属性</tspan></tspan></text></g></g><g id="SvgjsG1196"><path id="SvgjsPath1197" d="M1109.40625 214L958.40625 214L958.40625 214L807.40625 214" stroke="#323232" stroke-width="2" fill="none" marker-end="url(#SvgjsMarker1198)"></path></g><g id="SvgjsG1200" transform="translate(826.4904990842496,208.6904761904762)"><path id="SvgjsPath1201" d="M 0 0L 256 0L 256 44.11904761904759L 0 44.11904761904759Z" stroke="none" fill="none"></path><g id="SvgjsG1202"><text id="SvgjsText1203" font-family="微软雅黑" text-anchor="middle" font-size="13px" width="256px" fill="#323232" font-weight="400" align="middle" lineHeight="125%" anchor="middle" family="微软雅黑" size="13px" weight="400" font-style="" opacity="1" y="12.434523809523796" transform="rotate(0)"><tspan id="SvgjsTspan1204" dy="16" x="128"><tspan id="SvgjsTspan1205" style="text-decoration:;">原型对象的constructor属性</tspan></tspan></text></g></g><g id="SvgjsG1206" transform="translate(648.40625,755.7619047619048)"><path id="SvgjsPath1207" d="M 0 140Q 9 140 9 131L 9 79Q 9 70 22 70Q 9 70 9 61L 9 9Q 9 0 0 0" stroke="rgba(50,50,50,1)" stroke-width="2" fill="none"></path><path id="SvgjsPath1208" d="M 0 0L 100 0L 100 140L 0 140Z" stroke="none" fill="none"></path><g id="SvgjsG1209"><text id="SvgjsText1210" font-family="微软雅黑" text-anchor="start" font-size="13px" width="73px" fill="#323232" font-weight="400" align="middle" lineHeight="125%" anchor="start" family="微软雅黑" size="13px" weight="400" font-style="" opacity="1" y="60.375" transform="rotate(0)"></text></g></g><g id="SvgjsG1211"><path id="SvgjsPath1212" d="M776.40625 769C 793.40625 876 755.40625 817 683.40625 825" stroke="#323232" stroke-width="2" fill="none" marker-end="url(#SvgjsMarker1213)"></path></g><g id="SvgjsG1215" transform="translate(532.8366529304037,728.860805860806)"><path id="SvgjsPath1216" d="M 0 0L 99 0L 99 193.80219780219784L 0 193.80219780219784Z" stroke="none" fill="none"></path><g id="SvgjsG1217"><text id="SvgjsText1218" font-family="微软雅黑" text-anchor="middle" font-size="13px" width="99px" fill="#323232" font-weight="400" align="middle" lineHeight="125%" anchor="middle" family="微软雅黑" size="13px" weight="400" font-style="" opacity="1" y="31.27609890109892" transform="rotate(0)"><tspan id="SvgjsTspan1219" dy="16" x="49.5"><tspan id="SvgjsTspan1220" style="text-decoration:;">JS内置构造函数</tspan></tspan><tspan id="SvgjsTspan1221" dy="16" x="49.5"><tspan id="SvgjsTspan1222" style="text-decoration:;">Function</tspan></tspan><tspan id="SvgjsTspan1223" dy="16" x="49.5"><tspan id="SvgjsTspan1224" style="text-decoration:;">Object</tspan></tspan><tspan id="SvgjsTspan1225" dy="16" x="49.5"><tspan id="SvgjsTspan1226" style="text-decoration:;">Array</tspan></tspan><tspan id="SvgjsTspan1227" dy="16" x="49.5"><tspan id="SvgjsTspan1228" style="text-decoration:;">String</tspan></tspan><tspan id="SvgjsTspan1229" dy="16" x="49.5"><tspan id="SvgjsTspan1230" style="text-decoration:;">Boolean</tspan></tspan><tspan id="SvgjsTspan1231" dy="16" x="49.5"><tspan id="SvgjsTspan1232" style="text-decoration:;">Number</tspan></tspan><tspan id="SvgjsTspan1233" dy="16" x="49.5"><tspan id="SvgjsTspan1234" style="text-decoration:;">...等</tspan></tspan></text></g></g><g id="SvgjsG1235"><path id="SvgjsPath1236" d="M1499.2633928571422 694.5595238095236L1657.8348214285713 508.1428571428571" stroke="#323232" stroke-width="2" fill="none" marker-end="url(#SvgjsMarker1237)"></path></g><g id="SvgjsG1239" transform="translate(1666.406250000001,424.33333333333326)"><path id="SvgjsPath1240" d="M 0 4Q 0 0 4 0L 96 0Q 100 0 100 4L 100 66Q 100 70 96 70L 4 70Q 0 70 0 66Z" stroke="rgba(50,50,50,1)" stroke-width="2" fill-opacity="1" fill="#ffffff"></path><g id="SvgjsG1241"><text id="SvgjsText1242" font-family="微软雅黑" text-anchor="middle" font-size="13px" width="80px" fill="#323232" font-weight="400" align="middle" lineHeight="125%" anchor="middle" family="微软雅黑" size="13px" weight="400" font-style="" opacity="1" y="9.375" transform="rotate(0)"><tspan id="SvgjsTspan1243" dy="16" x="50"><tspan id="SvgjsTspan1244" style="text-decoration:;">内置的对象原</tspan></tspan><tspan id="SvgjsTspan1245" dy="16" x="50"><tspan id="SvgjsTspan1246" style="text-decoration:;">型</tspan></tspan><tspan id="SvgjsTspan1247" dy="16" x="50"><tspan id="SvgjsTspan1248" style="text-decoration:;">object { }</tspan></tspan></text></g></g><g id="SvgjsG1249"><path id="SvgjsPath1250" d="M1773.0491071428567 415.8452380952376C 1800.0491071428567 380.2452380952377 1813.5491071428567 362.44523809523764 1840.5491071428567 326.84523809523773" stroke="#323232" stroke-width="2" fill="none" marker-end="url(#SvgjsMarker1251)"></path></g><g id="SvgjsG1253" transform="translate(1805.7157738095232,273.14285714285717)"><path id="SvgjsPath1254" d="M 0 0L 120 0L 120 40L 0 40Z" stroke="none" fill="none"></path><g id="SvgjsG1255"><text id="SvgjsText1256" font-family="微软雅黑" text-anchor="middle" font-size="13px" width="120px" fill="#323232" font-weight="400" align="middle" lineHeight="125%" anchor="middle" family="微软雅黑" size="13px" weight="400" font-style="" opacity="1" y="10.375" transform="rotate(0)"><tspan id="SvgjsTspan1257" dy="16" x="60"><tspan id="SvgjsTspan1258" style="text-decoration:;">null</tspan></tspan></text></g></g><g id="SvgjsG1259"><path id="SvgjsPath1260" d="M1461.1205357142849 742.1309523809523C 1486.1205357142849 771.1309523809523 1472.1205357142849 770.1309523809523 1528.1205357142849 768.1309523809523" stroke="#323232" stroke-width="2" fill="none" marker-end="url(#SvgjsMarker1261)"></path></g><g id="SvgjsG1263" transform="translate(1466.452037545787,698.6309523809525)"><path id="SvgjsPath1264" d="M 100 0Q 91 0 91 9L 91 61Q 91 70 78 70Q 91 70 91 79L 91 131Q 91 140 100 140" stroke="rgba(50,50,50,1)" stroke-width="2" fill="none"></path><path id="SvgjsPath1265" d="M 0 0L 100 0L 100 140L 0 140Z" stroke="none" fill="none"></path><g id="SvgjsG1266"><text id="SvgjsText1267" font-family="微软雅黑" text-anchor="end" font-size="13px" width="73px" fill="#323232" font-weight="400" align="middle" lineHeight="125%" anchor="end" family="微软雅黑" size="13px" weight="400" font-style="" opacity="1" y="60.375" transform="rotate(0)"></text></g></g><g id="SvgjsG1268" transform="translate(1546.834821428571,695.9999999999998)"><path id="SvgjsPath1269" d="M 0 0L 204.7380952380954 0L 204.7380952380954 151.8809523809523L 0 151.8809523809523Z" stroke="none" fill="none"></path><g id="SvgjsG1270"><text id="SvgjsText1271" font-family="微软雅黑" text-anchor="middle" font-size="13px" width="205px" fill="#323232" font-weight="400" align="middle" lineHeight="125%" anchor="middle" family="微软雅黑" size="13px" weight="400" font-style="" opacity="1" y="26.315476190476147" transform="rotate(0)"><tspan id="SvgjsTspan1272" dy="16" x="102.5"><tspan id="SvgjsTspan1273" style="text-decoration:;">Object直接为object { }</tspan></tspan><tspan id="SvgjsTspan1274" dy="16" x="102.5"><tspan id="SvgjsTspan1275" style="text-decoration:;">Function 为function( )</tspan></tspan><tspan id="SvgjsTspan1276" dy="16" x="102.5"><tspan id="SvgjsTspan1277" style="text-decoration:;">Array为 array[ ]</tspan></tspan><tspan id="SvgjsTspan1278" dy="16" x="102.5"><tspan id="SvgjsTspan1279" style="text-decoration:;">Number为number{ }</tspan></tspan><tspan id="SvgjsTspan1280" dy="16" x="102.5"><tspan id="SvgjsTspan1281" style="text-decoration:;">String为string{ }</tspan></tspan><tspan id="SvgjsTspan1282" dy="16" x="102.5"><tspan id="SvgjsTspan1283" style="text-decoration:;">...</tspan></tspan></text></g></g><g id="SvgjsG1284" transform="translate(1154.1205357142856,424.33333333333326)"><path id="SvgjsPath1285" d="M 0 4Q 0 0 4 0L 120 0Q 124 0 124 4L 124 65Q 124 69 120 69L 4 69Q 0 69 0 65Z" stroke="rgba(50,50,50,1)" stroke-width="2" fill-opacity="1" fill="#ffffff"></path><g id="SvgjsG1286"><text id="SvgjsText1287" font-family="微软雅黑" text-anchor="middle" font-size="13px" width="104px" fill="#323232" font-weight="400" align="middle" lineHeight="125%" anchor="middle" family="微软雅黑" size="13px" weight="400" font-style="" opacity="1" y="24.875" transform="rotate(0)"><tspan id="SvgjsTspan1288" dy="16" x="62"><tspan id="SvgjsTspan1289" style="text-decoration:;">Object构造函数</tspan></tspan></text></g></g><g id="SvgjsG1290" transform="translate(1581.43005952381,592.9999999999999)"><path id="SvgjsPath1291" d="M 0 0L 120 0L 120 40L 0 40Z" stroke="none" fill="none"></path><g id="SvgjsG1292"><text id="SvgjsText1293" font-family="微软雅黑" text-anchor="middle" font-size="13px" width="120px" fill="#323232" font-weight="400" align="middle" lineHeight="125%" anchor="middle" family="微软雅黑" size="13px" weight="400" font-style="" opacity="1" y="10.375" transform="rotate(0)"><tspan id="SvgjsTspan1294" dy="16" x="60"><tspan id="SvgjsTspan1295" style="text-decoration:;">__proto__属性</tspan></tspan></text></g></g><g id="SvgjsG1296" transform="translate(1787.144345238095,374.9999999999999)"><path id="SvgjsPath1297" d="M 0 0L 120 0L 120 40L 0 40Z" stroke="none" fill="none"></path><g id="SvgjsG1298"><text id="SvgjsText1299" font-family="微软雅黑" text-anchor="middle" font-size="13px" width="120px" fill="#323232" font-weight="400" align="middle" lineHeight="125%" anchor="middle" family="微软雅黑" size="13px" weight="400" font-style="" opacity="1" y="10.375" transform="rotate(0)"><tspan id="SvgjsTspan1300" dy="16" x="60"><tspan id="SvgjsTspan1301" style="text-decoration:;">__proto__属性</tspan></tspan></text></g></g><g id="SvgjsG1302"><path id="SvgjsPath1303" d="M1289.263392857142 509.57142857142856C 1332.7401066195705 576.4285714285714 1354.478463500785 609.8571428571428 1397.9551772632135 676.7142857142857" stroke="#323232" stroke-width="2" fill="none" marker-end="url(#SvgjsMarker1304)"></path></g><g id="SvgjsG1306" transform="translate(1323.1205357142856,542.9999999999998)"><path id="SvgjsPath1307" d="M 0 0L 120 0L 120 40L 0 40Z" stroke="none" fill="none"></path><g id="SvgjsG1308"><text id="SvgjsText1309" font-family="微软雅黑" text-anchor="middle" font-size="13px" width="120px" fill="#323232" font-weight="400" align="middle" lineHeight="125%" anchor="middle" family="微软雅黑" size="13px" weight="400" font-style="" opacity="1" y="10.375" transform="rotate(0)"><tspan id="SvgjsTspan1310" dy="16" x="60"><tspan id="SvgjsTspan1311" style="text-decoration:;">new 运算符</tspan></tspan></text></g></g><g id="SvgjsG1312"><path id="SvgjsPath1313" d="M1367.8348214285709 692.4285714285713C 1321.4094246031739 620.9619047619047 1298.1967261904756 585.2285714285714 1251.7713293650786 513.7619047619048" stroke="#323232" stroke-width="2" fill="none" marker-end="url(#SvgjsMarker1314)"></path></g><g id="SvgjsG1316" transform="translate(1180.0014880952383,592.9999999999999)"><path id="SvgjsPath1317" d="M 0 0L 120 0L 120 40L 0 40Z" stroke="none" fill="none"></path><g id="SvgjsG1318"><text id="SvgjsText1319" font-family="微软雅黑" text-anchor="middle" font-size="13px" width="120px" fill="#323232" font-weight="400" align="middle" lineHeight="125%" anchor="middle" family="微软雅黑" size="13px" weight="400" font-style="" opacity="1" y="10.375" transform="rotate(0)"><tspan id="SvgjsTspan1320" dy="16" x="60"><tspan id="SvgjsTspan1321" style="text-decoration:;">constructor属性</tspan></tspan></text></g></g><g id="SvgjsG1322" transform="translate(1373.6919642857129,407.92857142857156)"><path id="SvgjsPath1323" d="M 0 0L 120 0L 120 40L 0 40Z" stroke="none" fill="none"></path><g id="SvgjsG1324"><text id="SvgjsText1325" font-family="微软雅黑" text-anchor="middle" font-size="13px" width="120px" fill="#323232" font-weight="400" align="middle" lineHeight="125%" anchor="middle" family="微软雅黑" size="13px" weight="400" font-style="" opacity="1" y="10.375" transform="rotate(0)"><tspan id="SvgjsTspan1326" dy="16" x="60"><tspan id="SvgjsTspan1327" style="text-decoration:;">prototype属性</tspan></tspan></text></g></g><g id="SvgjsG1328"><path id="SvgjsPath1329" d="M1301.4062500000002 445.4285714285712L1458.90625 445.4285714285712L1458.90625 445.4285714285712L1616.4062500000002 445.4285714285712" stroke="#323232" stroke-width="2" fill="none" marker-end="url(#SvgjsMarker1330)"></path></g><g id="SvgjsG1332"><path id="SvgjsPath1333" d="M1615.1205357142865 469.71428571428544L1464.120535714286 469.71428571428544L1464.120535714286 469.71428571428544L1313.1205357142862 469.71428571428544" stroke="#323232" stroke-width="2" fill="none" marker-end="url(#SvgjsMarker1334)"></path></g><g id="SvgjsG1336" transform="translate(1337.5948946886438,467.88095238095207)"><path id="SvgjsPath1337" d="M 0 0L 256 0L 256 44.11904761904759L 0 44.11904761904759Z" stroke="none" fill="none"></path><g id="SvgjsG1338"><text id="SvgjsText1339" font-family="微软雅黑" text-anchor="middle" font-size="13px" width="256px" fill="#323232" font-weight="400" align="middle" lineHeight="125%" anchor="middle" family="微软雅黑" size="13px" weight="400" font-style="" opacity="1" y="12.434523809523796" transform="rotate(0)"><tspan id="SvgjsTspan1340" dy="16" x="128"><tspan id="SvgjsTspan1341" style="text-decoration:;">原型对象的constructor属性</tspan></tspan></text></g></g><g id="SvgjsG1342"><path id="SvgjsPath1343" d="M890.3110119047622 410C 838.0951388888888 344.3047619047619 811.987202380952 311.4571428571429 759.7713293650786 245.76190476190482" stroke="#323232" stroke-width="2" fill="none" marker-end="url(#SvgjsMarker1344)"></path></g><g id="SvgjsG1346" transform="translate(714.40625,322.9999999999999)"><path id="SvgjsPath1347" d="M 0 0L 120 0L 120 40L 0 40Z" stroke="none" fill="none"></path><g id="SvgjsG1348"><text id="SvgjsText1349" font-family="微软雅黑" text-anchor="middle" font-size="13px" width="120px" fill="#323232" font-weight="400" align="middle" lineHeight="125%" anchor="middle" family="微软雅黑" size="13px" weight="400" font-style="" opacity="1" y="10.375" transform="rotate(0)"><tspan id="SvgjsTspan1350" dy="16" x="60"><tspan id="SvgjsTspan1351" style="text-decoration:;">constructor属性</tspan></tspan></text></g></g><g id="SvgjsG1352" transform="translate(25.00148809523833,54.00000000000006)"><path id="SvgjsPath1353" d="M 0 0L 552.4999999999998 0L 552.4999999999998 360.9999999999998L 0 360.9999999999998Z" stroke="none" fill="none"></path><g id="SvgjsG1354"><text id="SvgjsText1355" font-family="微软雅黑" text-anchor="start" font-size="13px" width="553px" fill="#323232" font-weight="400" align="middle" lineHeight="125%" anchor="start" family="微软雅黑" size="13px" weight="400" font-style="" opacity="1" y="82.87499999999989" transform="rotate(0)"><tspan id="SvgjsTspan1356" dy="16" x="0"><tspan id="SvgjsTspan1357" style="text-decoration:;">1，函数是特殊的对象，构造函数也是对象</tspan></tspan><tspan id="SvgjsTspan1358" dy="16" x="0"><tspan id="SvgjsTspan1359" style="text-decoration:;">2，对象都有 __proto__ 属性，指向其构造函数的原型对象</tspan></tspan><tspan id="SvgjsTspan1360" dy="16" x="0"><tspan id="SvgjsTspan1361" style="text-decoration:;"> </tspan></tspan><tspan id="SvgjsTspan1362" dy="16" x="0"><tspan id="SvgjsTspan1363" style="text-decoration:;">3，函数都有prototype属性，保存着其原型对象</tspan></tspan><tspan id="SvgjsTspan1364" dy="16" x="0"><tspan id="SvgjsTspan1365" style="text-decoration:;"> </tspan></tspan><tspan id="SvgjsTspan1366" dy="16" x="0"><tspan id="SvgjsTspan1367" style="text-decoration:;">4，函数是构造函数Function的实例，即任何函数的构造函数都是Function</tspan></tspan><tspan id="SvgjsTspan1368" dy="16" x="0"><tspan id="SvgjsTspan1369" style="text-decoration:;">5，Function函数的构造函数是他本身Function</tspan></tspan><tspan id="SvgjsTspan1370" dy="16" x="0"><tspan id="SvgjsTspan1371" style="text-decoration:;"> </tspan></tspan><tspan id="SvgjsTspan1372" dy="16" x="0"><tspan id="SvgjsTspan1373" style="text-decoration:;">6，任何对象通过原型对象，都可以可以追溯到Object构造函数的实例，Function构造函数的原</tspan></tspan><tspan id="SvgjsTspan1374" dy="16" x="0"><tspan id="SvgjsTspan1375" style="text-decoration:;">型对象也是Object构造函数的实例</tspan></tspan><tspan id="SvgjsTspan1376" dy="16" x="0"><tspan id="SvgjsTspan1377" style="text-decoration:;"> </tspan></tspan><tspan id="SvgjsTspan1378" dy="16" x="0"><tspan id="SvgjsTspan1379" style="text-decoration:;">7. 每个对象都是某构造函数的实例</tspan></tspan></text></g></g></svg>