<svg xmlns="http://www.w3.org/2000/svg" xmlns:xlink="http://www.w3.org/1999/xlink" id="body_3" preserveAspectRatio="xMinYMin meet" viewBox="0 0 792 1120"><defs><clipPath id="1"><path d="M0 840L0 -0.9599609L0 -0.9599609L594.96 -0.9599609L594.96 -0.9599609L594.96 840L594.96 840L0 840z" /></clipPath><clipPath id="2"><path d="M27.99999 27.04004L566.9999 27.04004L566.9999 27.04004L566.9999 811.5175L566.9999 811.5175L27.99999 811.5175z" /></clipPath><clipPath id="3"><path d="M27.99999 71.33099L493.4317 71.33099L493.4317 71.33099L493.4317 322.8142L493.4317 322.8142L27.99999 322.8142z" /></clipPath></defs><g transform="matrix(1.333333 0 0 1.333333 0 0)"><g><g clip-path="url(#1)"><g clip-path="url(#2)"><path transform="matrix(1 0 0 -1 0 840)" d="M28.75069 231.1704L566.2491 231.1704L566.2491 231.1704L566.2491 230.4197L566.2491 230.4197L28.75069 230.4197z" stroke="none" fill="#999999" fill-rule="winding" /></g><g clip-path="url(#3)"><path transform="matrix(1 0 0 -1 0 840)" d="M27.99999 517.9363L493.4316 517.9363L493.4316 517.9363L493.4316 517.1855L493.4316 517.1855L27.99999 517.1855z" stroke="none" fill="#E0E0E0" fill-rule="winding" /><path transform="matrix(1 0 0 -1 0 840)" d="M27.99999 758.1591L260.7158 758.1591L260.7158 758.1591L260.7158 728.1312L260.7158 728.1312L27.99999 728.1312z" stroke="none" fill="#FFFFFF" fill-rule="winding" fill-opacity="0.3019608" /><path transform="matrix(1 0 0 -1 0 840)" d="M27.99999 758.1591L260.7158 758.1591L260.7158 758.1591L260.7158 757.4083L260.7158 757.4083L27.99999 757.4083z" stroke="none" fill="#E0E0E0" fill-rule="winding" /><path transform="matrix(1 0 0 -1 0 840)" d="M259.9651 758.1591L260.7158 758.1591L260.7158 758.1591L260.7158 728.1312L260.7158 728.1312L259.9651 728.1312z" stroke="none" fill="#E0E0E0" fill-rule="winding" /><path transform="matrix(1 0 0 -1 0 840)" d="M27.99999 758.1591L28.75069 758.1591L28.75069 758.1591L28.75069 728.1312L28.75069 728.1312L27.99999 728.1312z" stroke="none" fill="#E0E0E0" fill-rule="winding" /><path transform="matrix(1 0 0 -1 0 840)" d="M260.7158 758.1591L493.4316 758.1591L493.4316 758.1591L493.4316 728.1312L493.4316 728.1312L260.7158 728.1312z" stroke="none" fill="#FFFFFF" fill-rule="winding" fill-opacity="0.3019608" /><path transform="matrix(1 0 0 -1 0 840)" d="M260.7158 758.1591L493.4316 758.1591L493.4316 758.1591L493.4316 757.4083L493.4316 757.4083L260.7158 757.4083z" stroke="none" fill="#E0E0E0" fill-rule="winding" /><path transform="matrix(1 0 0 -1 0 840)" d="M492.6809 758.1591L493.4316 758.1591L493.4316 758.1591L493.4316 728.1312L493.4316 728.1312L492.6809 728.1312z" stroke="none" fill="#E0E0E0" fill-rule="winding" /><path transform="matrix(1 0 0 -1 0 840)" d="M27.99999 728.1312L260.7158 728.1312L260.7158 728.1312L260.7158 698.1034L260.7158 698.1034L27.99999 698.1034z" stroke="none" fill="#FFFFFF" fill-rule="winding" fill-opacity="0.3019608" /><path transform="matrix(1 0 0 -1 0 840)" d="M27.99999 728.1312L260.7158 728.1312L260.7158 728.1312L260.7158 727.3805L260.7158 727.3805L27.99999 727.3805z" stroke="none" fill="#E0E0E0" fill-rule="winding" /><path transform="matrix(1 0 0 -1 0 840)" d="M259.9651 728.1312L260.7158 728.1312L260.7158 728.1312L260.7158 698.1034L260.7158 698.1034L259.9651 698.1034z" stroke="none" fill="#E0E0E0" fill-rule="winding" /><path transform="matrix(1 0 0 -1 0 840)" d="M27.99999 728.1312L28.75069 728.1312L28.75069 728.1312L28.75069 698.1034L28.75069 698.1034L27.99999 698.1034z" stroke="none" fill="#E0E0E0" fill-rule="winding" /><path transform="matrix(1 0 0 -1 0 840)" d="M260.7158 728.1312L493.4316 728.1312L493.4316 728.1312L493.4316 698.1034L493.4316 698.1034L260.7158 698.1034z" stroke="none" fill="#FFFFFF" fill-rule="winding" fill-opacity="0.3019608" /><path transform="matrix(1 0 0 -1 0 840)" d="M260.7158 728.1312L493.4316 728.1312L493.4316 728.1312L493.4316 727.3805L493.4316 727.3805L260.7158 727.3805z" stroke="none" fill="#E0E0E0" fill-rule="winding" /><path transform="matrix(1 0 0 -1 0 840)" d="M492.6809 728.1312L493.4316 728.1312L493.4316 728.1312L493.4316 698.1034L493.4316 698.1034L492.6809 698.1034z" stroke="none" fill="#E0E0E0" fill-rule="winding" /><path transform="matrix(1 0 0 -1 0 840)" d="M27.99999 698.1034L260.7158 698.1034L260.7158 698.1034L260.7158 668.0756L260.7158 668.0756L27.99999 668.0756z" stroke="none" fill="#FFFFFF" fill-rule="winding" fill-opacity="0.3019608" /><path transform="matrix(1 0 0 -1 0 840)" d="M27.99999 698.1034L260.7158 698.1034L260.7158 698.1034L260.7158 697.3527L260.7158 697.3527L27.99999 697.3527z" stroke="none" fill="#E0E0E0" fill-rule="winding" /><path transform="matrix(1 0 0 -1 0 840)" d="M259.9651 698.1034L260.7158 698.1034L260.7158 698.1034L260.7158 668.0756L260.7158 668.0756L259.9651 668.0756z" stroke="none" fill="#E0E0E0" fill-rule="winding" /><path transform="matrix(1 0 0 -1 0 840)" d="M27.99999 698.1034L28.75069 698.1034L28.75069 698.1034L28.75069 668.0756L28.75069 668.0756L27.99999 668.0756z" stroke="none" fill="#E0E0E0" fill-rule="winding" /><path transform="matrix(1 0 0 -1 0 840)" d="M260.7158 698.1034L493.4316 698.1034L493.4316 698.1034L493.4316 668.0756L493.4316 668.0756L260.7158 668.0756z" stroke="none" fill="#FFFFFF" fill-rule="winding" fill-opacity="0.3019608" /><path transform="matrix(1 0 0 -1 0 840)" d="M260.7158 698.1034L493.4316 698.1034L493.4316 698.1034L493.4316 697.3527L493.4316 697.3527L260.7158 697.3527z" stroke="none" fill="#E0E0E0" fill-rule="winding" /><path transform="matrix(1 0 0 -1 0 840)" d="M492.6809 698.1034L493.4316 698.1034L493.4316 698.1034L493.4316 668.0756L493.4316 668.0756L492.6809 668.0756z" stroke="none" fill="#E0E0E0" fill-rule="winding" /><path transform="matrix(1 0 0 -1 0 840)" d="M27.99999 668.0756L260.7158 668.0756L260.7158 668.0756L260.7158 638.0477L260.7158 638.0477L27.99999 638.0477z" stroke="none" fill="#FFFFFF" fill-rule="winding" fill-opacity="0.3019608" /><path transform="matrix(1 0 0 -1 0 840)" d="M27.99999 668.0756L260.7158 668.0756L260.7158 668.0756L260.7158 667.3248L260.7158 667.3248L27.99999 667.3248z" stroke="none" fill="#E0E0E0" fill-rule="winding" /><path transform="matrix(1 0 0 -1 0 840)" d="M259.9651 668.0756L260.7158 668.0756L260.7158 668.0756L260.7158 638.0477L260.7158 638.0477L259.9651 638.0477z" stroke="none" fill="#E0E0E0" fill-rule="winding" /><path transform="matrix(1 0 0 -1 0 840)" d="M27.99999 668.0756L28.75069 668.0756L28.75069 668.0756L28.75069 638.0477L28.75069 638.0477L27.99999 638.0477z" stroke="none" fill="#E0E0E0" fill-rule="winding" /><path transform="matrix(1 0 0 -1 0 840)" d="M260.7158 668.0756L493.4316 668.0756L493.4316 668.0756L493.4316 638.0477L493.4316 638.0477L260.7158 638.0477z" stroke="none" fill="#FFFFFF" fill-rule="winding" fill-opacity="0.3019608" /><path transform="matrix(1 0 0 -1 0 840)" d="M260.7158 668.0756L493.4316 668.0756L493.4316 668.0756L493.4316 667.3248L493.4316 667.3248L260.7158 667.3248z" stroke="none" fill="#E0E0E0" fill-rule="winding" /><path transform="matrix(1 0 0 -1 0 840)" d="M492.6809 668.0756L493.4316 668.0756L493.4316 668.0756L493.4316 638.0477L493.4316 638.0477L492.6809 638.0477z" stroke="none" fill="#E0E0E0" fill-rule="winding" /><path transform="matrix(1 0 0 -1 0 840)" d="M27.99999 638.0477L260.7158 638.0477L260.7158 638.0477L260.7158 608.0198L260.7158 608.0198L27.99999 608.0198z" stroke="none" fill="#FFFFFF" fill-rule="winding" fill-opacity="0.3019608" /><path transform="matrix(1 0 0 -1 0 840)" d="M27.99999 638.0477L260.7158 638.0477L260.7158 638.0477L260.7158 637.297L260.7158 637.297L27.99999 637.297z" stroke="none" fill="#E0E0E0" fill-rule="winding" /><path transform="matrix(1 0 0 -1 0 840)" d="M259.9651 638.0477L260.7158 638.0477L260.7158 638.0477L260.7158 608.0198L260.7158 608.0198L259.9651 608.0198z" stroke="none" fill="#E0E0E0" fill-rule="winding" /><path transform="matrix(1 0 0 -1 0 840)" d="M27.99999 638.0477L28.75069 638.0477L28.75069 638.0477L28.75069 608.0198L28.75069 608.0198L27.99999 608.0198z" stroke="none" fill="#E0E0E0" fill-rule="winding" /><path transform="matrix(1 0 0 -1 0 840)" d="M260.7158 638.0477L493.4316 638.0477L493.4316 638.0477L493.4316 608.0198L493.4316 608.0198L260.7158 608.0198z" stroke="none" fill="#FFFFFF" fill-rule="winding" fill-opacity="0.3019608" /><path transform="matrix(1 0 0 -1 0 840)" d="M260.7158 638.0477L493.4316 638.0477L493.4316 638.0477L493.4316 637.297L493.4316 637.297L260.7158 637.297z" stroke="none" fill="#E0E0E0" fill-rule="winding" /><path transform="matrix(1 0 0 -1 0 840)" d="M492.6809 638.0477L493.4316 638.0477L493.4316 638.0477L493.4316 608.0198L493.4316 608.0198L492.6809 608.0198z" stroke="none" fill="#E0E0E0" fill-rule="winding" /><path transform="matrix(1 0 0 -1 0 840)" d="M27.99999 608.0198L260.7158 608.0198L260.7158 608.0198L260.7158 577.9919L260.7158 577.9919L27.99999 577.9919z" stroke="none" fill="#FFFFFF" fill-rule="winding" fill-opacity="0.3019608" /><path transform="matrix(1 0 0 -1 0 840)" d="M27.99999 608.0198L260.7158 608.0198L260.7158 608.0198L260.7158 607.2692L260.7158 607.2692L27.99999 607.2692z" stroke="none" fill="#E0E0E0" fill-rule="winding" /><path transform="matrix(1 0 0 -1 0 840)" d="M259.9651 608.0198L260.7158 608.0198L260.7158 608.0198L260.7158 577.9919L260.7158 577.9919L259.9651 577.9919z" stroke="none" fill="#E0E0E0" fill-rule="winding" /><path transform="matrix(1 0 0 -1 0 840)" d="M27.99999 608.0198L28.75069 608.0198L28.75069 608.0198L28.75069 577.9919L28.75069 577.9919L27.99999 577.9919z" stroke="none" fill="#E0E0E0" fill-rule="winding" /><path transform="matrix(1 0 0 -1 0 840)" d="M260.7158 608.0198L493.4316 608.0198L493.4316 608.0198L493.4316 577.9919L493.4316 577.9919L260.7158 577.9919z" stroke="none" fill="#FFFFFF" fill-rule="winding" fill-opacity="0.3019608" /><path transform="matrix(1 0 0 -1 0 840)" d="M260.7158 608.0198L493.4316 608.0198L493.4316 608.0198L493.4316 607.2692L493.4316 607.2692L260.7158 607.2692z" stroke="none" fill="#E0E0E0" fill-rule="winding" /><path transform="matrix(1 0 0 -1 0 840)" d="M492.6809 608.0198L493.4316 608.0198L493.4316 608.0198L493.4316 577.9919L493.4316 577.9919L492.6809 577.9919z" stroke="none" fill="#E0E0E0" fill-rule="winding" /><path transform="matrix(1 0 0 -1 0 840)" d="M27.99999 577.9919L260.7158 577.9919L260.7158 577.9919L260.7158 547.9641L260.7158 547.9641L27.99999 547.9641z" stroke="none" fill="#FFFFFF" fill-rule="winding" fill-opacity="0.3019608" /><path transform="matrix(1 0 0 -1 0 840)" d="M27.99999 577.9919L260.7158 577.9919L260.7158 577.9919L260.7158 577.2413L260.7158 577.2413L27.99999 577.2413z" stroke="none" fill="#E0E0E0" fill-rule="winding" /><path transform="matrix(1 0 0 -1 0 840)" d="M259.9651 577.9919L260.7158 577.9919L260.7158 577.9919L260.7158 547.9641L260.7158 547.9641L259.9651 547.9641z" stroke="none" fill="#E0E0E0" fill-rule="winding" /><path transform="matrix(1 0 0 -1 0 840)" d="M27.99999 577.9919L28.75069 577.9919L28.75069 577.9919L28.75069 547.9641L28.75069 547.9641L27.99999 547.9641z" stroke="none" fill="#E0E0E0" fill-rule="winding" /><path transform="matrix(1 0 0 -1 0 840)" d="M260.7158 577.9919L493.4316 577.9919L493.4316 577.9919L493.4316 547.9641L493.4316 547.9641L260.7158 547.9641z" stroke="none" fill="#FFFFFF" fill-rule="winding" fill-opacity="0.3019608" /><path transform="matrix(1 0 0 -1 0 840)" d="M260.7158 577.9919L493.4316 577.9919L493.4316 577.9919L493.4316 577.2413L493.4316 577.2413L260.7158 577.2413z" stroke="none" fill="#E0E0E0" fill-rule="winding" /><path transform="matrix(1 0 0 -1 0 840)" d="M492.6809 577.9919L493.4316 577.9919L493.4316 577.9919L493.4316 547.9641L493.4316 547.9641L492.6809 547.9641z" stroke="none" fill="#E0E0E0" fill-rule="winding" /><path transform="matrix(1 0 0 -1 0 840)" d="M27.99999 547.9641L260.7158 547.9641L260.7158 547.9641L260.7158 517.9363L260.7158 517.9363L27.99999 517.9363z" stroke="none" fill="#FFFFFF" fill-rule="winding" fill-opacity="0.3019608" /><path transform="matrix(1 0 0 -1 0 840)" d="M27.99999 547.9641L260.7158 547.9641L260.7158 547.9641L260.7158 547.2134L260.7158 547.2134L27.99999 547.2134z" stroke="none" fill="#E0E0E0" fill-rule="winding" /><path transform="matrix(1 0 0 -1 0 840)" d="M259.9651 547.9641L260.7158 547.9641L260.7158 547.9641L260.7158 517.9363L260.7158 517.9363L259.9651 517.9363z" stroke="none" fill="#E0E0E0" fill-rule="winding" /><path transform="matrix(1 0 0 -1 0 840)" d="M27.99999 547.9641L28.75069 547.9641L28.75069 547.9641L28.75069 517.9363L28.75069 517.9363L27.99999 517.9363z" stroke="none" fill="#E0E0E0" fill-rule="winding" /><path transform="matrix(1 0 0 -1 0 840)" d="M260.7158 547.9641L493.4316 547.9641L493.4316 547.9641L493.4316 517.9363L493.4316 517.9363L260.7158 517.9363z" stroke="none" fill="#FFFFFF" fill-rule="winding" fill-opacity="0.3019608" /><path transform="matrix(1 0 0 -1 0 840)" d="M260.7158 547.9641L493.4316 547.9641L493.4316 547.9641L493.4316 547.2134L493.4316 547.2134L260.7158 547.2134z" stroke="none" fill="#E0E0E0" fill-rule="winding" /><path transform="matrix(1 0 0 -1 0 840)" d="M492.6809 547.9641L493.4316 547.9641L493.4316 547.9641L493.4316 517.9363L493.4316 517.9363L492.6809 517.9363z" stroke="none" fill="#E0E0E0" fill-rule="winding" /></g></g></g></g></svg>