<svg xmlns="http://www.w3.org/2000/svg" xmlns:xlink="http://www.w3.org/1999/xlink" id="body_1" preserveAspectRatio="xMinYMin meet" viewBox="0 0 792 1120"><defs><clipPath id="1"><path d="M0 840L0 -0.9599609L0 -0.9599609L594.96 -0.9599609L594.96 -0.9599609L594.96 840L594.96 840L0 840z" /></clipPath><clipPath id="2"><path d="M27.99999 27.04004L566.9999 27.04004L566.9999 27.04004L566.9999 811.5176L566.9999 811.5176L27.99999 811.5176z" /></clipPath><clipPath id="3"><path d="M27.99999 320.5623L493.4317 320.5623L493.4317 320.5623L493.4317 632.1013L493.4317 632.1013L27.99999 632.1013z" /></clipPath><clipPath id="4"><path d="M27.99999 775.4842L493.4317 775.4842L493.4317 775.4842L493.4317 811.5176L493.4317 811.5176L27.99999 811.5176z" /></clipPath></defs><g transform="matrix(1.333333 0 0 1.333333 0 0)"><g><g clip-path="url(#1)"><g clip-path="url(#2)"><path transform="matrix(1 0 0 -1 0 840)" d="M28.75069 719.1229L566.2491 719.1229L566.2491 719.1229L566.2491 718.3723L566.2491 718.3723L28.75069 718.3723z" stroke="none" fill="#999999" fill-rule="winding" /><path transform="matrix(1 0 0 -1 0 840)" d="M28.75069 629.7901L566.2491 629.7901L566.2491 629.7901L566.2491 629.0394L566.2491 629.0394L28.75069 629.0394z" stroke="none" fill="#999999" fill-rule="winding" /><path transform="matrix(1 0 0 -1 0 840)" d="M31.75348 680.462C 31.75348 680.2133 31.70586 679.9738 31.61062 679.7439C 31.51538 679.514 31.37977 679.311 31.20379 679.135C 31.02781 678.959 30.82486 678.8234 30.59493 678.7282C 30.36501 678.6329 30.12561 678.5853 29.87674 678.5853C 29.62786 678.5853 29.38846 678.6329 29.15854 678.7282C 28.92861 678.8234 28.72566 678.959 28.54968 679.135C 28.3737 679.311 28.23809 679.514 28.14285 679.7439C 28.04761 679.9738 27.99999 680.2133 27.99999 680.462C 27.99999 680.7109 28.04761 680.9504 28.14285 681.1803C 28.23809 681.4102 28.3737 681.6132 28.54968 681.7892C 28.72566 681.9651 28.92861 682.1007 29.15854 682.196C 29.38846 682.2912 29.62786 682.3388 29.87674 682.3388C 30.12561 682.3388 30.36501 682.2912 30.59493 682.196C 30.82486 682.1007 31.02781 681.9651 31.20379 681.7892C 31.37977 681.6132 31.51538 681.4102 31.61062 681.1803C 31.70586 680.9504 31.75348 680.7109 31.75348 680.462z" stroke="none" fill="#24292E" fill-rule="winding" /><path transform="matrix(1 0 0 -1 0 840)" d="M31.75348 662.4454C 31.75348 662.1965 31.70586 661.9572 31.61062 661.7272C 31.51538 661.4973 31.37977 661.2943 31.20379 661.1183C 31.02781 660.9424 30.82486 660.8068 30.59493 660.7115C 30.36501 660.6163 30.12561 660.5686 29.87674 660.5686C 29.62786 660.5686 29.38846 660.6163 29.15854 660.7115C 28.92861 660.8068 28.72566 660.9424 28.54968 661.1183C 28.3737 661.2943 28.23809 661.4973 28.14285 661.7272C 28.04761 661.9572 27.99999 662.1965 27.99999 662.4454C 27.99999 662.6942 28.04761 662.9337 28.14285 663.1636C 28.23809 663.3935 28.3737 663.5964 28.54968 663.7725C 28.72566 663.9484 28.92861 664.084 29.15854 664.1793C 29.38846 664.2745 29.62786 664.3221 29.87674 664.3221C 30.12561 664.3221 30.36501 664.2745 30.59493 664.1793C 30.82486 664.084 31.02781 663.9484 31.20379 663.7725C 31.37977 663.5964 31.51538 663.3935 31.61062 663.1636C 31.70586 662.9337 31.75348 662.6942 31.75348 662.4454z" stroke="none" fill="#24292E" fill-rule="winding" /><path transform="matrix(1 0 0 -1 0 840)" d="M52.77297 591.1292C 52.77296 590.8804 52.72535 590.641 52.63011 590.4111C 52.53487 590.1812 52.39926 589.9781 52.22328 589.8022C 52.0473 589.6262 51.84435 589.4906 51.61442 589.3954C 51.3845 589.3001 51.1451 589.2525 50.89622 589.2525C 50.64735 589.2525 50.40796 589.3001 50.17803 589.3954C 49.9481 589.4906 49.74515 589.6262 49.56917 589.8022C 49.39319 589.9781 49.25758 590.1812 49.16235 590.4111C 49.0671 590.641 49.01949 590.8804 49.01949 591.1292C 49.01949 591.3781 49.0671 591.6175 49.16235 591.8475C 49.25758 592.0774 49.39319 592.2803 49.56917 592.4563C 49.74515 592.6323 49.9481 592.7679 50.17803 592.8632C 50.40796 592.9584 50.64735 593.006 50.89622 593.006C 51.1451 593.006 51.38449 592.9584 51.61442 592.8632C 51.84435 592.7679 52.0473 592.6323 52.22328 592.4563C 52.39926 592.2803 52.53487 592.0774 52.63011 591.8475C 52.72535 591.6175 52.77296 591.3781 52.77297 591.1292z" stroke="none" fill="#000000" fill-rule="winding" /><path transform="matrix(1 0 0 -1 0 840)" d="M52.77297 573.1125C 52.77296 572.8636 52.72535 572.6243 52.63011 572.3943C 52.53487 572.1644 52.39926 571.9615 52.22328 571.7855C 52.0473 571.6095 51.84435 571.4739 51.61442 571.3787C 51.3845 571.2834 51.1451 571.2358 50.89622 571.2358C 50.64735 571.2358 50.40796 571.2834 50.17803 571.3787C 49.9481 571.4739 49.74515 571.6095 49.56917 571.7855C 49.39319 571.9615 49.25758 572.1644 49.16235 572.3943C 49.0671 572.6243 49.01949 572.8636 49.01949 573.1125C 49.01949 573.3614 49.0671 573.6008 49.16235 573.8307C 49.25758 574.0607 49.39319 574.2636 49.56917 574.4396C 49.74515 574.6155 49.9481 574.7512 50.17803 574.8464C 50.40796 574.9417 50.64735 574.9893 50.89622 574.9893C 51.1451 574.9893 51.38449 574.9417 51.61442 574.8464C 51.84435 574.7512 52.0473 574.6155 52.22328 574.4396C 52.39926 574.2636 52.53487 574.0607 52.63011 573.8307C 52.72535 573.6008 52.77296 573.3614 52.77297 573.1125z" stroke="none" fill="#000000" fill-rule="winding" /><path transform="matrix(1 0 0 -1 0 840)" d="M82.80081 206.3974L229.9373 206.3974L229.9373 206.3974L229.9373 189.1314L229.9373 189.1314L82.80081 189.1314z" stroke="none" fill="#FAE220" fill-rule="winding" /><path transform="matrix(1 0 0 -1 0 840)" d="M31.75348 91.9162C 31.75348 91.66736 31.70586 91.42804 31.61062 91.19812C 31.51538 90.9682 31.37977 90.76526 31.20379 90.58923C 31.02781 90.41327 30.82486 90.27771 30.59493 90.18243C 30.36501 90.08716 30.12561 90.03955 29.87674 90.03949C 29.62786 90.03955 29.38846 90.08716 29.15854 90.18243C 28.92861 90.27771 28.72566 90.41327 28.54968 90.58923C 28.3737 90.76526 28.23809 90.9682 28.14285 91.19812C 28.04761 91.42804 27.99999 91.66736 27.99999 91.9162C 27.99999 92.16516 28.04761 92.4046 28.14285 92.63452C 28.23809 92.8645 28.3737 93.06744 28.54968 93.24335C 28.72566 93.41937 28.92861 93.55493 29.15854 93.65021C 29.38846 93.74536 29.62786 93.79297 29.87674 93.79297C 30.12561 93.79297 30.36501 93.74536 30.59493 93.65015C 30.82486 93.55493 31.02781 93.41937 31.20379 93.24335C 31.37977 93.06744 31.51538 92.8645 31.61062 92.63452C 31.70586 92.4046 31.75348 92.16516 31.75348 91.9162z" stroke="none" fill="#000000" fill-rule="winding" /><path transform="matrix(1 0 0 -1 0 840)" d="M31.75348 73.89954C 31.75348 73.6507 31.70586 73.41138 31.61062 73.18146C 31.51538 72.95154 31.37977 72.74854 31.20379 72.57257C 31.02781 72.39655 30.82486 72.26099 30.59493 72.16577C 30.36501 72.0705 30.12561 72.02283 29.87674 72.02277C 29.62786 72.02283 29.38846 72.0705 29.15854 72.16577C 28.92861 72.26099 28.72566 72.39655 28.54968 72.57257C 28.3737 72.74854 28.23809 72.95154 28.14285 73.18146C 28.04761 73.41138 27.99999 73.6507 27.99999 73.89954C 27.99999 74.14844 28.04761 74.38788 28.14285 74.6178C 28.23809 74.84772 28.3737 75.05066 28.54968 75.22662C 28.72566 75.40259 28.92861 75.53821 29.15854 75.63342C 29.38846 75.72864 29.62786 75.77625 29.87674 75.77625C 30.12561 75.77625 30.36501 75.72864 30.59493 75.63342C 30.82486 75.53821 31.02781 75.40259 31.20379 75.22662C 31.37977 75.05066 31.51538 74.84772 31.61062 74.6178C 31.70586 74.38788 31.75348 74.14844 31.75348 73.89954z" stroke="none" fill="#000000" fill-rule="winding" /></g><g clip-path="url(#3)"><path transform="matrix(1 0 0 -1 0 840)" d="M27.99999 208.6495L493.4316 208.6495L493.4316 208.6495L493.4316 207.8988L493.4316 207.8988L27.99999 207.8988z" stroke="none" fill="#E0E0E0" fill-rule="winding" /><path transform="matrix(1 0 0 -1 0 840)" d="M27.99999 508.928L260.7158 508.928L260.7158 508.928L260.7158 478.9001L260.7158 478.9001L27.99999 478.9001z" stroke="none" fill="#FFFFFF" fill-rule="winding" fill-opacity="0.3019608" /><path transform="matrix(1 0 0 -1 0 840)" d="M27.99999 508.928L260.7158 508.928L260.7158 508.928L260.7158 508.1773L260.7158 508.1773L27.99999 508.1773z" stroke="none" fill="#E0E0E0" fill-rule="winding" /><path transform="matrix(1 0 0 -1 0 840)" d="M259.9651 508.928L260.7158 508.928L260.7158 508.928L260.7158 478.9001L260.7158 478.9001L259.9651 478.9001z" stroke="none" fill="#E0E0E0" fill-rule="winding" /><path transform="matrix(1 0 0 -1 0 840)" d="M27.99999 508.928L28.75069 508.928L28.75069 508.928L28.75069 478.9001L28.75069 478.9001L27.99999 478.9001z" stroke="none" fill="#E0E0E0" fill-rule="winding" /><path transform="matrix(1 0 0 -1 0 840)" d="M260.7158 508.928L493.4316 508.928L493.4316 508.928L493.4316 478.9001L493.4316 478.9001L260.7158 478.9001z" stroke="none" fill="#FFFFFF" fill-rule="winding" fill-opacity="0.3019608" /><path transform="matrix(1 0 0 -1 0 840)" d="M260.7158 508.928L493.4316 508.928L493.4316 508.928L493.4316 508.1773L493.4316 508.1773L260.7158 508.1773z" stroke="none" fill="#E0E0E0" fill-rule="winding" /><path transform="matrix(1 0 0 -1 0 840)" d="M492.6809 508.928L493.4316 508.928L493.4316 508.928L493.4316 478.9001L493.4316 478.9001L492.6809 478.9001z" stroke="none" fill="#E0E0E0" fill-rule="winding" /><path transform="matrix(1 0 0 -1 0 840)" d="M27.99999 478.9001L260.7158 478.9001L260.7158 478.9001L260.7158 448.8723L260.7158 448.8723L27.99999 448.8723z" stroke="none" fill="#FFFFFF" fill-rule="winding" fill-opacity="0.3019608" /><path transform="matrix(1 0 0 -1 0 840)" d="M27.99999 478.9001L260.7158 478.9001L260.7158 478.9001L260.7158 478.1494L260.7158 478.1494L27.99999 478.1494z" stroke="none" fill="#E0E0E0" fill-rule="winding" /><path transform="matrix(1 0 0 -1 0 840)" d="M259.9651 478.9001L260.7158 478.9001L260.7158 478.9001L260.7158 448.8723L260.7158 448.8723L259.9651 448.8723z" stroke="none" fill="#E0E0E0" fill-rule="winding" /><path transform="matrix(1 0 0 -1 0 840)" d="M27.99999 478.9001L28.75069 478.9001L28.75069 478.9001L28.75069 448.8723L28.75069 448.8723L27.99999 448.8723z" stroke="none" fill="#E0E0E0" fill-rule="winding" /><path transform="matrix(1 0 0 -1 0 840)" d="M260.7158 478.9001L493.4316 478.9001L493.4316 478.9001L493.4316 448.8723L493.4316 448.8723L260.7158 448.8723z" stroke="none" fill="#FFFFFF" fill-rule="winding" fill-opacity="0.3019608" /><path transform="matrix(1 0 0 -1 0 840)" d="M260.7158 478.9001L493.4316 478.9001L493.4316 478.9001L493.4316 478.1494L493.4316 478.1494L260.7158 478.1494z" stroke="none" fill="#E0E0E0" fill-rule="winding" /><path transform="matrix(1 0 0 -1 0 840)" d="M492.6809 478.9001L493.4316 478.9001L493.4316 478.9001L493.4316 448.8723L493.4316 448.8723L492.6809 448.8723z" stroke="none" fill="#E0E0E0" fill-rule="winding" /><path transform="matrix(1 0 0 -1 0 840)" d="M27.99999 448.8723L260.7158 448.8723L260.7158 448.8723L260.7158 418.8444L260.7158 418.8444L27.99999 418.8444z" stroke="none" fill="#FFFFFF" fill-rule="winding" fill-opacity="0.3019608" /><path transform="matrix(1 0 0 -1 0 840)" d="M27.99999 448.8723L260.7158 448.8723L260.7158 448.8723L260.7158 448.1216L260.7158 448.1216L27.99999 448.1216z" stroke="none" fill="#E0E0E0" fill-rule="winding" /><path transform="matrix(1 0 0 -1 0 840)" d="M259.9651 448.8723L260.7158 448.8723L260.7158 448.8723L260.7158 418.8444L260.7158 418.8444L259.9651 418.8444z" stroke="none" fill="#E0E0E0" fill-rule="winding" /><path transform="matrix(1 0 0 -1 0 840)" d="M27.99999 448.8723L28.75069 448.8723L28.75069 448.8723L28.75069 418.8444L28.75069 418.8444L27.99999 418.8444z" stroke="none" fill="#E0E0E0" fill-rule="winding" /><path transform="matrix(1 0 0 -1 0 840)" d="M260.7158 448.8723L493.4316 448.8723L493.4316 448.8723L493.4316 418.8444L493.4316 418.8444L260.7158 418.8444z" stroke="none" fill="#FFFFFF" fill-rule="winding" fill-opacity="0.3019608" /><path transform="matrix(1 0 0 -1 0 840)" d="M260.7158 448.8723L493.4316 448.8723L493.4316 448.8723L493.4316 448.1216L493.4316 448.1216L260.7158 448.1216z" stroke="none" fill="#E0E0E0" fill-rule="winding" /><path transform="matrix(1 0 0 -1 0 840)" d="M492.6809 448.8723L493.4316 448.8723L493.4316 448.8723L493.4316 418.8444L493.4316 418.8444L492.6809 418.8444z" stroke="none" fill="#E0E0E0" fill-rule="winding" /><path transform="matrix(1 0 0 -1 0 840)" d="M27.99999 418.8444L260.7158 418.8444L260.7158 418.8444L260.7158 388.8166L260.7158 388.8166L27.99999 388.8166z" stroke="none" fill="#FFFFFF" fill-rule="winding" fill-opacity="0.3019608" /><path transform="matrix(1 0 0 -1 0 840)" d="M27.99999 418.8444L260.7158 418.8444L260.7158 418.8444L260.7158 418.0938L260.7158 418.0938L27.99999 418.0938z" stroke="none" fill="#E0E0E0" fill-rule="winding" /><path transform="matrix(1 0 0 -1 0 840)" d="M259.9651 418.8444L260.7158 418.8444L260.7158 418.8444L260.7158 388.8166L260.7158 388.8166L259.9651 388.8166z" stroke="none" fill="#E0E0E0" fill-rule="winding" /><path transform="matrix(1 0 0 -1 0 840)" d="M27.99999 418.8444L28.75069 418.8444L28.75069 418.8444L28.75069 388.8166L28.75069 388.8166L27.99999 388.8166z" stroke="none" fill="#E0E0E0" fill-rule="winding" /><path transform="matrix(1 0 0 -1 0 840)" d="M260.7158 418.8444L493.4316 418.8444L493.4316 418.8444L493.4316 388.8166L493.4316 388.8166L260.7158 388.8166z" stroke="none" fill="#FFFFFF" fill-rule="winding" fill-opacity="0.3019608" /><path transform="matrix(1 0 0 -1 0 840)" d="M260.7158 418.8444L493.4316 418.8444L493.4316 418.8444L493.4316 418.0938L493.4316 418.0938L260.7158 418.0938z" stroke="none" fill="#E0E0E0" fill-rule="winding" /><path transform="matrix(1 0 0 -1 0 840)" d="M492.6809 418.8444L493.4316 418.8444L493.4316 418.8444L493.4316 388.8166L493.4316 388.8166L492.6809 388.8166z" stroke="none" fill="#E0E0E0" fill-rule="winding" /><path transform="matrix(1 0 0 -1 0 840)" d="M27.99999 388.8166L260.7158 388.8166L260.7158 388.8166L260.7158 358.7887L260.7158 358.7887L27.99999 358.7887z" stroke="none" fill="#FFFFFF" fill-rule="winding" fill-opacity="0.3019608" /><path transform="matrix(1 0 0 -1 0 840)" d="M27.99999 388.8166L260.7158 388.8166L260.7158 388.8166L260.7158 388.0659L260.7158 388.0659L27.99999 388.0659z" stroke="none" fill="#E0E0E0" fill-rule="winding" /><path transform="matrix(1 0 0 -1 0 840)" d="M259.9651 388.8166L260.7158 388.8166L260.7158 388.8166L260.7158 358.7887L260.7158 358.7887L259.9651 358.7887z" stroke="none" fill="#E0E0E0" fill-rule="winding" /><path transform="matrix(1 0 0 -1 0 840)" d="M27.99999 388.8166L28.75069 388.8166L28.75069 388.8166L28.75069 358.7887L28.75069 358.7887L27.99999 358.7887z" stroke="none" fill="#E0E0E0" fill-rule="winding" /><path transform="matrix(1 0 0 -1 0 840)" d="M260.7158 388.8166L493.4316 388.8166L493.4316 388.8166L493.4316 358.7887L493.4316 358.7887L260.7158 358.7887z" stroke="none" fill="#FFFFFF" fill-rule="winding" fill-opacity="0.3019608" /><path transform="matrix(1 0 0 -1 0 840)" d="M260.7158 388.8166L493.4316 388.8166L493.4316 388.8166L493.4316 388.0659L493.4316 388.0659L260.7158 388.0659z" stroke="none" fill="#E0E0E0" fill-rule="winding" /><path transform="matrix(1 0 0 -1 0 840)" d="M492.6809 388.8166L493.4316 388.8166L493.4316 388.8166L493.4316 358.7887L493.4316 358.7887L492.6809 358.7887z" stroke="none" fill="#E0E0E0" fill-rule="winding" /><path transform="matrix(1 0 0 -1 0 840)" d="M27.99999 358.7887L260.7158 358.7887L260.7158 358.7887L260.7158 328.7609L260.7158 328.7609L27.99999 328.7609z" stroke="none" fill="#FFFFFF" fill-rule="winding" fill-opacity="0.3019608" /><path transform="matrix(1 0 0 -1 0 840)" d="M27.99999 358.7887L260.7158 358.7887L260.7158 358.7887L260.7158 358.038L260.7158 358.038L27.99999 358.038z" stroke="none" fill="#E0E0E0" fill-rule="winding" /><path transform="matrix(1 0 0 -1 0 840)" d="M259.9651 358.7887L260.7158 358.7887L260.7158 358.7887L260.7158 328.7609L260.7158 328.7609L259.9651 328.7609z" stroke="none" fill="#E0E0E0" fill-rule="winding" /><path transform="matrix(1 0 0 -1 0 840)" d="M27.99999 358.7887L28.75069 358.7887L28.75069 358.7887L28.75069 328.7609L28.75069 328.7609L27.99999 328.7609z" stroke="none" fill="#E0E0E0" fill-rule="winding" /><path transform="matrix(1 0 0 -1 0 840)" d="M260.7158 358.7887L493.4316 358.7887L493.4316 358.7887L493.4316 328.7609L493.4316 328.7609L260.7158 328.7609z" stroke="none" fill="#FFFFFF" fill-rule="winding" fill-opacity="0.3019608" /><path transform="matrix(1 0 0 -1 0 840)" d="M260.7158 358.7887L493.4316 358.7887L493.4316 358.7887L493.4316 358.038L493.4316 358.038L260.7158 358.038z" stroke="none" fill="#E0E0E0" fill-rule="winding" /><path transform="matrix(1 0 0 -1 0 840)" d="M492.6809 358.7887L493.4316 358.7887L493.4316 358.7887L493.4316 328.7609L493.4316 328.7609L492.6809 328.7609z" stroke="none" fill="#E0E0E0" fill-rule="winding" /><path transform="matrix(1 0 0 -1 0 840)" d="M27.99999 328.7609L260.7158 328.7609L260.7158 328.7609L260.7158 298.733L260.7158 298.733L27.99999 298.733z" stroke="none" fill="#FFFFFF" fill-rule="winding" fill-opacity="0.3019608" /><path transform="matrix(1 0 0 -1 0 840)" d="M27.99999 328.7609L260.7158 328.7609L260.7158 328.7609L260.7158 328.0102L260.7158 328.0102L27.99999 328.0102z" stroke="none" fill="#E0E0E0" fill-rule="winding" /><path transform="matrix(1 0 0 -1 0 840)" d="M259.9651 328.7609L260.7158 328.7609L260.7158 328.7609L260.7158 298.733L260.7158 298.733L259.9651 298.733z" stroke="none" fill="#E0E0E0" fill-rule="winding" /><path transform="matrix(1 0 0 -1 0 840)" d="M27.99999 328.7609L28.75069 328.7609L28.75069 328.7609L28.75069 298.733L28.75069 298.733L27.99999 298.733z" stroke="none" fill="#E0E0E0" fill-rule="winding" /><path transform="matrix(1 0 0 -1 0 840)" d="M260.7158 328.7609L493.4316 328.7609L493.4316 328.7609L493.4316 298.733L493.4316 298.733L260.7158 298.733z" stroke="none" fill="#FFFFFF" fill-rule="winding" fill-opacity="0.3019608" /><path transform="matrix(1 0 0 -1 0 840)" d="M260.7158 328.7609L493.4316 328.7609L493.4316 328.7609L493.4316 328.0102L493.4316 328.0102L260.7158 328.0102z" stroke="none" fill="#E0E0E0" fill-rule="winding" /><path transform="matrix(1 0 0 -1 0 840)" d="M492.6809 328.7609L493.4316 328.7609L493.4316 328.7609L493.4316 298.733L493.4316 298.733L492.6809 298.733z" stroke="none" fill="#E0E0E0" fill-rule="winding" /><path transform="matrix(1 0 0 -1 0 840)" d="M27.99999 298.733L260.7158 298.733L260.7158 298.733L260.7158 268.7052L260.7158 268.7052L27.99999 268.7052z" stroke="none" fill="#FFFFFF" fill-rule="winding" fill-opacity="0.3019608" /><path transform="matrix(1 0 0 -1 0 840)" d="M27.99999 298.733L260.7158 298.733L260.7158 298.733L260.7158 297.9824L260.7158 297.9824L27.99999 297.9824z" stroke="none" fill="#E0E0E0" fill-rule="winding" /><path transform="matrix(1 0 0 -1 0 840)" d="M259.9651 298.733L260.7158 298.733L260.7158 298.733L260.7158 268.7052L260.7158 268.7052L259.9651 268.7052z" stroke="none" fill="#E0E0E0" fill-rule="winding" /><path transform="matrix(1 0 0 -1 0 840)" d="M27.99999 298.733L28.75069 298.733L28.75069 298.733L28.75069 268.7052L28.75069 268.7052L27.99999 268.7052z" stroke="none" fill="#E0E0E0" fill-rule="winding" /><path transform="matrix(1 0 0 -1 0 840)" d="M260.7158 298.733L493.4316 298.733L493.4316 298.733L493.4316 268.7052L493.4316 268.7052L260.7158 268.7052z" stroke="none" fill="#FFFFFF" fill-rule="winding" fill-opacity="0.3019608" /><path transform="matrix(1 0 0 -1 0 840)" d="M260.7158 298.733L493.4316 298.733L493.4316 298.733L493.4316 297.9824L493.4316 297.9824L260.7158 297.9824z" stroke="none" fill="#E0E0E0" fill-rule="winding" /><path transform="matrix(1 0 0 -1 0 840)" d="M492.6809 298.733L493.4316 298.733L493.4316 298.733L493.4316 268.7052L493.4316 268.7052L492.6809 268.7052z" stroke="none" fill="#E0E0E0" fill-rule="winding" /><path transform="matrix(1 0 0 -1 0 840)" d="M27.99999 268.7052L260.7158 268.7052L260.7158 268.7052L260.7158 238.6773L260.7158 238.6773L27.99999 238.6773z" stroke="none" fill="#FFFFFF" fill-rule="winding" fill-opacity="0.3019608" /><path transform="matrix(1 0 0 -1 0 840)" d="M27.99999 268.7052L260.7158 268.7052L260.7158 268.7052L260.7158 267.9545L260.7158 267.9545L27.99999 267.9545z" stroke="none" fill="#E0E0E0" fill-rule="winding" /><path transform="matrix(1 0 0 -1 0 840)" d="M259.9651 268.7052L260.7158 268.7052L260.7158 268.7052L260.7158 238.6773L260.7158 238.6773L259.9651 238.6773z" stroke="none" fill="#E0E0E0" fill-rule="winding" /><path transform="matrix(1 0 0 -1 0 840)" d="M27.99999 268.7052L28.75069 268.7052L28.75069 268.7052L28.75069 238.6773L28.75069 238.6773L27.99999 238.6773z" stroke="none" fill="#E0E0E0" fill-rule="winding" /><path transform="matrix(1 0 0 -1 0 840)" d="M260.7158 268.7052L493.4316 268.7052L493.4316 268.7052L493.4316 238.6773L493.4316 238.6773L260.7158 238.6773z" stroke="none" fill="#FFFFFF" fill-rule="winding" fill-opacity="0.3019608" /><path transform="matrix(1 0 0 -1 0 840)" d="M260.7158 268.7052L493.4316 268.7052L493.4316 268.7052L493.4316 267.9545L493.4316 267.9545L260.7158 267.9545z" stroke="none" fill="#E0E0E0" fill-rule="winding" /><path transform="matrix(1 0 0 -1 0 840)" d="M492.6809 268.7052L493.4316 268.7052L493.4316 268.7052L493.4316 238.6773L493.4316 238.6773L492.6809 238.6773z" stroke="none" fill="#E0E0E0" fill-rule="winding" /><path transform="matrix(1 0 0 -1 0 840)" d="M27.99999 238.6773L260.7158 238.6773L260.7158 238.6773L260.7158 208.6495L260.7158 208.6495L27.99999 208.6495z" stroke="none" fill="#FFFFFF" fill-rule="winding" fill-opacity="0.3019608" /><path transform="matrix(1 0 0 -1 0 840)" d="M27.99999 238.6773L260.7158 238.6773L260.7158 238.6773L260.7158 237.9266L260.7158 237.9266L27.99999 237.9266z" stroke="none" fill="#E0E0E0" fill-rule="winding" /><path transform="matrix(1 0 0 -1 0 840)" d="M259.9651 238.6773L260.7158 238.6773L260.7158 238.6773L260.7158 208.6495L260.7158 208.6495L259.9651 208.6495z" stroke="none" fill="#E0E0E0" fill-rule="winding" /><path transform="matrix(1 0 0 -1 0 840)" d="M27.99999 238.6773L28.75069 238.6773L28.75069 238.6773L28.75069 208.6495L28.75069 208.6495L27.99999 208.6495z" stroke="none" fill="#E0E0E0" fill-rule="winding" /><path transform="matrix(1 0 0 -1 0 840)" d="M260.7158 238.6773L493.4316 238.6773L493.4316 238.6773L493.4316 208.6495L493.4316 208.6495L260.7158 208.6495z" stroke="none" fill="#FFFFFF" fill-rule="winding" fill-opacity="0.3019608" /><path transform="matrix(1 0 0 -1 0 840)" d="M260.7158 238.6773L493.4316 238.6773L493.4316 238.6773L493.4316 237.9266L493.4316 237.9266L260.7158 237.9266z" stroke="none" fill="#E0E0E0" fill-rule="winding" /><path transform="matrix(1 0 0 -1 0 840)" d="M492.6809 238.6773L493.4316 238.6773L493.4316 238.6773L493.4316 208.6495L493.4316 208.6495L492.6809 208.6495z" stroke="none" fill="#E0E0E0" fill-rule="winding" /></g><g clip-path="url(#4)"><path transform="matrix(1 0 0 -1 0 840)" d="M27.99999 54.00604L260.7158 54.00604L260.7158 54.00604L260.7158 23.97821L260.7158 23.97821L27.99999 23.97821z" stroke="none" fill="#FFFFFF" fill-rule="winding" fill-opacity="0.3019608" /><path transform="matrix(1 0 0 -1 0 840)" d="M27.99999 54.00604L260.7158 54.00604L260.7158 54.00604L260.7158 53.25537L260.7158 53.25537L27.99999 53.25537z" stroke="none" fill="#E0E0E0" fill-rule="winding" /><path transform="matrix(1 0 0 -1 0 840)" d="M259.9651 54.00604L260.7158 54.00604L260.7158 54.00604L260.7158 23.97821L260.7158 23.97821L259.9651 23.97821z" stroke="none" fill="#E0E0E0" fill-rule="winding" /><path transform="matrix(1 0 0 -1 0 840)" d="M27.99999 54.00604L28.75069 54.00604L28.75069 54.00604L28.75069 23.97821L28.75069 23.97821L27.99999 23.97821z" stroke="none" fill="#E0E0E0" fill-rule="winding" /><path transform="matrix(1 0 0 -1 0 840)" d="M260.7158 54.00604L493.4316 54.00604L493.4316 54.00604L493.4316 23.97821L493.4316 23.97821L260.7158 23.97821z" stroke="none" fill="#FFFFFF" fill-rule="winding" fill-opacity="0.3019608" /><path transform="matrix(1 0 0 -1 0 840)" d="M260.7158 54.00604L493.4316 54.00604L493.4316 54.00604L493.4316 53.25537L493.4316 53.25537L260.7158 53.25537z" stroke="none" fill="#E0E0E0" fill-rule="winding" /><path transform="matrix(1 0 0 -1 0 840)" d="M492.6809 54.00604L493.4316 54.00604L493.4316 54.00604L493.4316 23.97821L493.4316 23.97821L492.6809 23.97821z" stroke="none" fill="#E0E0E0" fill-rule="winding" /></g></g></g></g></svg>