<svg xmlns="http://www.w3.org/2000/svg" xmlns:xlink="http://www.w3.org/1999/xlink" id="body_2" preserveAspectRatio="xMinYMin meet" viewBox="0 0 792 1120"><defs><clipPath id="1"><path d="M0 840L0 -0.9599609L0 -0.9599609L594.96 -0.9599609L594.96 -0.9599609L594.96 840L594.96 840L0 840z" /></clipPath><clipPath id="2"><path d="M27.99999 27.04004L566.9999 27.04004L566.9999 27.04004L566.9999 811.5176L566.9999 811.5176L27.99999 811.5176z" /></clipPath><clipPath id="3"><path d="M27.99999 27.04004L493.4317 27.04004L493.4317 27.04004L493.4317 212.462L493.4317 212.462L27.99999 212.462z" /></clipPath><clipPath id="4"><path d="M27.99999 233.4816L478.4177 233.4816L478.4177 233.4816L478.4177 450.4327L478.4177 450.4327L27.99999 450.4327z" /></clipPath><clipPath id="5"><path d="M27.99999 578.8018L493.4317 578.8018L493.4317 578.8018L493.4317 770.2293L493.4317 770.2293L27.99999 770.2293z" /></clipPath></defs><g transform="matrix(1.333333 0 0 1.333333 0 0)"><g><g clip-path="url(#1)"><g clip-path="url(#2)"></g><g clip-path="url(#3)"><path transform="matrix(1 0 0 -1 0 840)" d="M27.99999 628.2886L493.4316 628.2886L493.4316 628.2886L493.4316 627.538L493.4316 627.538L27.99999 627.538z" stroke="none" fill="#E0E0E0" fill-rule="winding" /><path transform="matrix(1 0 0 -1 0 840)" d="M27.99999 838.4836L260.7158 838.4836L260.7158 838.4836L260.7158 808.4557L260.7158 808.4557L27.99999 808.4557z" stroke="none" fill="#FFFFFF" fill-rule="winding" fill-opacity="0.3019608" /><path transform="matrix(1 0 0 -1 0 840)" d="M259.9651 838.4836L260.7158 838.4836L260.7158 838.4836L260.7158 808.4557L260.7158 808.4557L259.9651 808.4557z" stroke="none" fill="#E0E0E0" fill-rule="winding" /><path transform="matrix(1 0 0 -1 0 840)" d="M27.99999 838.4836L28.75069 838.4836L28.75069 838.4836L28.75069 808.4557L28.75069 808.4557L27.99999 808.4557z" stroke="none" fill="#E0E0E0" fill-rule="winding" /><path transform="matrix(1 0 0 -1 0 840)" d="M260.7158 838.4836L493.4316 838.4836L493.4316 838.4836L493.4316 808.4557L493.4316 808.4557L260.7158 808.4557z" stroke="none" fill="#FFFFFF" fill-rule="winding" fill-opacity="0.3019608" /><path transform="matrix(1 0 0 -1 0 840)" d="M492.6809 838.4836L493.4316 838.4836L493.4316 838.4836L493.4316 808.4557L493.4316 808.4557L492.6809 808.4557z" stroke="none" fill="#E0E0E0" fill-rule="winding" /><path transform="matrix(1 0 0 -1 0 840)" d="M27.99999 808.4557L260.7158 808.4557L260.7158 808.4557L260.7158 778.4279L260.7158 778.4279L27.99999 778.4279z" stroke="none" fill="#FFFFFF" fill-rule="winding" fill-opacity="0.3019608" /><path transform="matrix(1 0 0 -1 0 840)" d="M27.99999 808.4557L260.7158 808.4557L260.7158 808.4557L260.7158 807.7051L260.7158 807.7051L27.99999 807.7051z" stroke="none" fill="#E0E0E0" fill-rule="winding" /><path transform="matrix(1 0 0 -1 0 840)" d="M259.9651 808.4557L260.7158 808.4557L260.7158 808.4557L260.7158 778.4279L260.7158 778.4279L259.9651 778.4279z" stroke="none" fill="#E0E0E0" fill-rule="winding" /><path transform="matrix(1 0 0 -1 0 840)" d="M27.99999 808.4557L28.75069 808.4557L28.75069 808.4557L28.75069 778.4279L28.75069 778.4279L27.99999 778.4279z" stroke="none" fill="#E0E0E0" fill-rule="winding" /><path transform="matrix(1 0 0 -1 0 840)" d="M260.7158 808.4557L493.4316 808.4557L493.4316 808.4557L493.4316 778.4279L493.4316 778.4279L260.7158 778.4279z" stroke="none" fill="#FFFFFF" fill-rule="winding" fill-opacity="0.3019608" /><path transform="matrix(1 0 0 -1 0 840)" d="M260.7158 808.4557L493.4316 808.4557L493.4316 808.4557L493.4316 807.7051L493.4316 807.7051L260.7158 807.7051z" stroke="none" fill="#E0E0E0" fill-rule="winding" /><path transform="matrix(1 0 0 -1 0 840)" d="M492.6809 808.4557L493.4316 808.4557L493.4316 808.4557L493.4316 778.4279L493.4316 778.4279L492.6809 778.4279z" stroke="none" fill="#E0E0E0" fill-rule="winding" /><path transform="matrix(1 0 0 -1 0 840)" d="M27.99999 778.4279L260.7158 778.4279L260.7158 778.4279L260.7158 748.4L260.7158 748.4L27.99999 748.4z" stroke="none" fill="#FFFFFF" fill-rule="winding" fill-opacity="0.3019608" /><path transform="matrix(1 0 0 -1 0 840)" d="M27.99999 778.4279L260.7158 778.4279L260.7158 778.4279L260.7158 777.6772L260.7158 777.6772L27.99999 777.6772z" stroke="none" fill="#E0E0E0" fill-rule="winding" /><path transform="matrix(1 0 0 -1 0 840)" d="M259.9651 778.4279L260.7158 778.4279L260.7158 778.4279L260.7158 748.4L260.7158 748.4L259.9651 748.4z" stroke="none" fill="#E0E0E0" fill-rule="winding" /><path transform="matrix(1 0 0 -1 0 840)" d="M27.99999 778.4279L28.75069 778.4279L28.75069 778.4279L28.75069 748.4L28.75069 748.4L27.99999 748.4z" stroke="none" fill="#E0E0E0" fill-rule="winding" /><path transform="matrix(1 0 0 -1 0 840)" d="M260.7158 778.4279L493.4316 778.4279L493.4316 778.4279L493.4316 748.4L493.4316 748.4L260.7158 748.4z" stroke="none" fill="#FFFFFF" fill-rule="winding" fill-opacity="0.3019608" /><path transform="matrix(1 0 0 -1 0 840)" d="M260.7158 778.4279L493.4316 778.4279L493.4316 778.4279L493.4316 777.6772L493.4316 777.6772L260.7158 777.6772z" stroke="none" fill="#E0E0E0" fill-rule="winding" /><path transform="matrix(1 0 0 -1 0 840)" d="M492.6809 778.4279L493.4316 778.4279L493.4316 778.4279L493.4316 748.4L493.4316 748.4L492.6809 748.4z" stroke="none" fill="#E0E0E0" fill-rule="winding" /><path transform="matrix(1 0 0 -1 0 840)" d="M27.99999 748.4L260.7158 748.4L260.7158 748.4L260.7158 718.3722L260.7158 718.3722L27.99999 718.3722z" stroke="none" fill="#FFFFFF" fill-rule="winding" fill-opacity="0.3019608" /><path transform="matrix(1 0 0 -1 0 840)" d="M27.99999 748.4L260.7158 748.4L260.7158 748.4L260.7158 747.6494L260.7158 747.6494L27.99999 747.6494z" stroke="none" fill="#E0E0E0" fill-rule="winding" /><path transform="matrix(1 0 0 -1 0 840)" d="M259.9651 748.4L260.7158 748.4L260.7158 748.4L260.7158 718.3722L260.7158 718.3722L259.9651 718.3722z" stroke="none" fill="#E0E0E0" fill-rule="winding" /><path transform="matrix(1 0 0 -1 0 840)" d="M27.99999 748.4L28.75069 748.4L28.75069 748.4L28.75069 718.3722L28.75069 718.3722L27.99999 718.3722z" stroke="none" fill="#E0E0E0" fill-rule="winding" /><path transform="matrix(1 0 0 -1 0 840)" d="M260.7158 748.4L493.4316 748.4L493.4316 748.4L493.4316 718.3722L493.4316 718.3722L260.7158 718.3722z" stroke="none" fill="#FFFFFF" fill-rule="winding" fill-opacity="0.3019608" /><path transform="matrix(1 0 0 -1 0 840)" d="M260.7158 748.4L493.4316 748.4L493.4316 748.4L493.4316 747.6494L493.4316 747.6494L260.7158 747.6494z" stroke="none" fill="#E0E0E0" fill-rule="winding" /><path transform="matrix(1 0 0 -1 0 840)" d="M492.6809 748.4L493.4316 748.4L493.4316 748.4L493.4316 718.3722L493.4316 718.3722L492.6809 718.3722z" stroke="none" fill="#E0E0E0" fill-rule="winding" /><path transform="matrix(1 0 0 -1 0 840)" d="M27.99999 718.3722L260.7158 718.3722L260.7158 718.3722L260.7158 688.3444L260.7158 688.3444L27.99999 688.3444z" stroke="none" fill="#FFFFFF" fill-rule="winding" fill-opacity="0.3019608" /><path transform="matrix(1 0 0 -1 0 840)" d="M27.99999 718.3722L260.7158 718.3722L260.7158 718.3722L260.7158 717.6215L260.7158 717.6215L27.99999 717.6215z" stroke="none" fill="#E0E0E0" fill-rule="winding" /><path transform="matrix(1 0 0 -1 0 840)" d="M259.9651 718.3722L260.7158 718.3722L260.7158 718.3722L260.7158 688.3444L260.7158 688.3444L259.9651 688.3444z" stroke="none" fill="#E0E0E0" fill-rule="winding" /><path transform="matrix(1 0 0 -1 0 840)" d="M27.99999 718.3722L28.75069 718.3722L28.75069 718.3722L28.75069 688.3444L28.75069 688.3444L27.99999 688.3444z" stroke="none" fill="#E0E0E0" fill-rule="winding" /><path transform="matrix(1 0 0 -1 0 840)" d="M260.7158 718.3722L493.4316 718.3722L493.4316 718.3722L493.4316 688.3444L493.4316 688.3444L260.7158 688.3444z" stroke="none" fill="#FFFFFF" fill-rule="winding" fill-opacity="0.3019608" /><path transform="matrix(1 0 0 -1 0 840)" d="M260.7158 718.3722L493.4316 718.3722L493.4316 718.3722L493.4316 717.6215L493.4316 717.6215L260.7158 717.6215z" stroke="none" fill="#E0E0E0" fill-rule="winding" /><path transform="matrix(1 0 0 -1 0 840)" d="M492.6809 718.3722L493.4316 718.3722L493.4316 718.3722L493.4316 688.3444L493.4316 688.3444L492.6809 688.3444z" stroke="none" fill="#E0E0E0" fill-rule="winding" /><path transform="matrix(1 0 0 -1 0 840)" d="M27.99999 688.3444L260.7158 688.3444L260.7158 688.3444L260.7158 658.3165L260.7158 658.3165L27.99999 658.3165z" stroke="none" fill="#FFFFFF" fill-rule="winding" fill-opacity="0.3019608" /><path transform="matrix(1 0 0 -1 0 840)" d="M27.99999 688.3444L260.7158 688.3444L260.7158 688.3444L260.7158 687.5936L260.7158 687.5936L27.99999 687.5936z" stroke="none" fill="#E0E0E0" fill-rule="winding" /><path transform="matrix(1 0 0 -1 0 840)" d="M259.9651 688.3444L260.7158 688.3444L260.7158 688.3444L260.7158 658.3165L260.7158 658.3165L259.9651 658.3165z" stroke="none" fill="#E0E0E0" fill-rule="winding" /><path transform="matrix(1 0 0 -1 0 840)" d="M27.99999 688.3444L28.75069 688.3444L28.75069 688.3444L28.75069 658.3165L28.75069 658.3165L27.99999 658.3165z" stroke="none" fill="#E0E0E0" fill-rule="winding" /><path transform="matrix(1 0 0 -1 0 840)" d="M260.7158 688.3444L493.4316 688.3444L493.4316 688.3444L493.4316 658.3165L493.4316 658.3165L260.7158 658.3165z" stroke="none" fill="#FFFFFF" fill-rule="winding" fill-opacity="0.3019608" /><path transform="matrix(1 0 0 -1 0 840)" d="M260.7158 688.3444L493.4316 688.3444L493.4316 688.3444L493.4316 687.5936L493.4316 687.5936L260.7158 687.5936z" stroke="none" fill="#E0E0E0" fill-rule="winding" /><path transform="matrix(1 0 0 -1 0 840)" d="M492.6809 688.3444L493.4316 688.3444L493.4316 688.3444L493.4316 658.3165L493.4316 658.3165L492.6809 658.3165z" stroke="none" fill="#E0E0E0" fill-rule="winding" /><path transform="matrix(1 0 0 -1 0 840)" d="M27.99999 658.3165L260.7158 658.3165L260.7158 658.3165L260.7158 628.2886L260.7158 628.2886L27.99999 628.2886z" stroke="none" fill="#FFFFFF" fill-rule="winding" fill-opacity="0.3019608" /><path transform="matrix(1 0 0 -1 0 840)" d="M27.99999 658.3165L260.7158 658.3165L260.7158 658.3165L260.7158 657.5658L260.7158 657.5658L27.99999 657.5658z" stroke="none" fill="#E0E0E0" fill-rule="winding" /><path transform="matrix(1 0 0 -1 0 840)" d="M259.9651 658.3165L260.7158 658.3165L260.7158 658.3165L260.7158 628.2886L260.7158 628.2886L259.9651 628.2886z" stroke="none" fill="#E0E0E0" fill-rule="winding" /><path transform="matrix(1 0 0 -1 0 840)" d="M27.99999 658.3165L28.75069 658.3165L28.75069 658.3165L28.75069 628.2886L28.75069 628.2886L27.99999 628.2886z" stroke="none" fill="#E0E0E0" fill-rule="winding" /><path transform="matrix(1 0 0 -1 0 840)" d="M260.7158 658.3165L493.4316 658.3165L493.4316 658.3165L493.4316 628.2886L493.4316 628.2886L260.7158 628.2886z" stroke="none" fill="#FFFFFF" fill-rule="winding" fill-opacity="0.3019608" /><path transform="matrix(1 0 0 -1 0 840)" d="M260.7158 658.3165L493.4316 658.3165L493.4316 658.3165L493.4316 657.5658L493.4316 657.5658L260.7158 657.5658z" stroke="none" fill="#E0E0E0" fill-rule="winding" /><path transform="matrix(1 0 0 -1 0 840)" d="M492.6809 658.3165L493.4316 658.3165L493.4316 658.3165L493.4316 628.2886L493.4316 628.2886L492.6809 628.2886z" stroke="none" fill="#E0E0E0" fill-rule="winding" /></g><g clip-path="url(#4)"><path transform="matrix(1 0 0 -1 0 840)" d="M27.99999 390.318L478.4177 390.318L478.4177 390.318L478.4177 389.5673L478.4177 389.5673L27.99999 389.5673z" stroke="none" fill="#E0E0E0" fill-rule="winding" /><path transform="matrix(1 0 0 -1 0 840)" d="M27.99999 596.0087L115.0807 596.0087L115.0807 596.0087L115.0807 565.9808L115.0807 565.9808L27.99999 565.9808z" stroke="none" fill="#FFFFFF" fill-rule="winding" fill-opacity="0.3019608" /><path transform="matrix(1 0 0 -1 0 840)" d="M27.99999 596.0087L115.0807 596.0087L115.0807 596.0087L115.0807 595.258L115.0807 595.258L27.99999 595.258z" stroke="none" fill="#E0E0E0" fill-rule="winding" /><path transform="matrix(1 0 0 -1 0 840)" d="M114.3301 596.0087L115.0807 596.0087L115.0807 596.0087L115.0807 565.9808L115.0807 565.9808L114.3301 565.9808z" stroke="none" fill="#E0E0E0" fill-rule="winding" /><path transform="matrix(1 0 0 -1 0 840)" d="M27.99999 596.0087L28.75069 596.0087L28.75069 596.0087L28.75069 565.9808L28.75069 565.9808L27.99999 565.9808z" stroke="none" fill="#E0E0E0" fill-rule="winding" /><path transform="matrix(1 0 0 -1 0 840)" d="M68.53759 587.0004L74.54316 587.0004L74.54316 587.0004L74.54316 574.9892L74.54316 574.9892L68.53759 574.9892z" stroke="none" fill="#F9F2F4" fill-rule="winding" /><path transform="matrix(1 0 0 -1 0 840)" d="M115.0807 596.0087L478.4177 596.0087L478.4177 596.0087L478.4177 565.9808L478.4177 565.9808L115.0807 565.9808z" stroke="none" fill="#FFFFFF" fill-rule="winding" fill-opacity="0.3019608" /><path transform="matrix(1 0 0 -1 0 840)" d="M115.0807 596.0087L478.4177 596.0087L478.4177 596.0087L478.4177 595.258L478.4177 595.258L115.0807 595.258z" stroke="none" fill="#E0E0E0" fill-rule="winding" /><path transform="matrix(1 0 0 -1 0 840)" d="M477.667 596.0087L478.4177 596.0087L478.4177 596.0087L478.4177 565.9808L478.4177 565.9808L477.667 565.9808z" stroke="none" fill="#E0E0E0" fill-rule="winding" /><path transform="matrix(1 0 0 -1 0 840)" d="M27.99999 565.9808L115.0807 565.9808L115.0807 565.9808L115.0807 535.953L115.0807 535.953L27.99999 535.953z" stroke="none" fill="#FFFFFF" fill-rule="winding" fill-opacity="0.3019608" /><path transform="matrix(1 0 0 -1 0 840)" d="M27.99999 565.9808L115.0807 565.9808L115.0807 565.9808L115.0807 565.2302L115.0807 565.2302L27.99999 565.2302z" stroke="none" fill="#E0E0E0" fill-rule="winding" /><path transform="matrix(1 0 0 -1 0 840)" d="M114.3301 565.9808L115.0807 565.9808L115.0807 565.9808L115.0807 535.953L115.0807 535.953L114.3301 535.953z" stroke="none" fill="#E0E0E0" fill-rule="winding" /><path transform="matrix(1 0 0 -1 0 840)" d="M27.99999 565.9808L28.75069 565.9808L28.75069 565.9808L28.75069 535.953L28.75069 535.953L27.99999 535.953z" stroke="none" fill="#E0E0E0" fill-rule="winding" /><path transform="matrix(1 0 0 -1 0 840)" d="M66.2855 556.9725L76.79524 556.9725L76.79524 556.9725L76.79524 544.9614L76.79524 544.9614L66.2855 544.9614z" stroke="none" fill="#F9F2F4" fill-rule="winding" /><path transform="matrix(1 0 0 -1 0 840)" d="M115.0807 565.9808L478.4177 565.9808L478.4177 565.9808L478.4177 535.953L478.4177 535.953L115.0807 535.953z" stroke="none" fill="#FFFFFF" fill-rule="winding" fill-opacity="0.3019608" /><path transform="matrix(1 0 0 -1 0 840)" d="M115.0807 565.9808L478.4177 565.9808L478.4177 565.9808L478.4177 565.2302L478.4177 565.2302L115.0807 565.2302z" stroke="none" fill="#E0E0E0" fill-rule="winding" /><path transform="matrix(1 0 0 -1 0 840)" d="M477.667 565.9808L478.4177 565.9808L478.4177 565.9808L478.4177 535.953L478.4177 535.953L477.667 535.953z" stroke="none" fill="#E0E0E0" fill-rule="winding" /><path transform="matrix(1 0 0 -1 0 840)" d="M171.383 554.7205L253.9595 554.7205L253.9595 554.7205L253.9595 542.7092L253.9595 542.7092L171.383 542.7092z" stroke="none" fill="#F9F2F4" fill-rule="winding" /><path transform="matrix(1 0 0 -1 0 840)" d="M27.99999 535.953L115.0807 535.953L115.0807 535.953L115.0807 505.9252L115.0807 505.9252L27.99999 505.9252z" stroke="none" fill="#FFFFFF" fill-rule="winding" fill-opacity="0.3019608" /><path transform="matrix(1 0 0 -1 0 840)" d="M27.99999 535.953L115.0807 535.953L115.0807 535.953L115.0807 535.2023L115.0807 535.2023L27.99999 535.2023z" stroke="none" fill="#E0E0E0" fill-rule="winding" /><path transform="matrix(1 0 0 -1 0 840)" d="M114.3301 535.953L115.0807 535.953L115.0807 535.953L115.0807 505.9252L115.0807 505.9252L114.3301 505.9252z" stroke="none" fill="#E0E0E0" fill-rule="winding" /><path transform="matrix(1 0 0 -1 0 840)" d="M27.99999 535.953L28.75069 535.953L28.75069 535.953L28.75069 505.9252L28.75069 505.9252L27.99999 505.9252z" stroke="none" fill="#E0E0E0" fill-rule="winding" /><path transform="matrix(1 0 0 -1 0 840)" d="M66.2855 526.9447L76.79524 526.9447L76.79524 526.9447L76.79524 514.9335L76.79524 514.9335L66.2855 514.9335z" stroke="none" fill="#F9F2F4" fill-rule="winding" /><path transform="matrix(1 0 0 -1 0 840)" d="M115.0807 535.953L478.4177 535.953L478.4177 535.953L478.4177 505.9252L478.4177 505.9252L115.0807 505.9252z" stroke="none" fill="#FFFFFF" fill-rule="winding" fill-opacity="0.3019608" /><path transform="matrix(1 0 0 -1 0 840)" d="M115.0807 535.953L478.4177 535.953L478.4177 535.953L478.4177 535.2023L478.4177 535.2023L115.0807 535.2023z" stroke="none" fill="#E0E0E0" fill-rule="winding" /><path transform="matrix(1 0 0 -1 0 840)" d="M477.667 535.953L478.4177 535.953L478.4177 535.953L478.4177 505.9252L478.4177 505.9252L477.667 505.9252z" stroke="none" fill="#E0E0E0" fill-rule="winding" /><path transform="matrix(1 0 0 -1 0 840)" d="M181.8927 524.6926L214.1727 524.6926L214.1727 524.6926L214.1727 512.6814L214.1727 512.6814L181.8927 512.6814z" stroke="none" fill="#F9F2F4" fill-rule="winding" /><path transform="matrix(1 0 0 -1 0 840)" d="M27.99999 505.9252L115.0807 505.9252L115.0807 505.9252L115.0807 475.8973L115.0807 475.8973L27.99999 475.8973z" stroke="none" fill="#FFFFFF" fill-rule="winding" fill-opacity="0.3019608" /><path transform="matrix(1 0 0 -1 0 840)" d="M27.99999 505.9252L115.0807 505.9252L115.0807 505.9252L115.0807 505.1744L115.0807 505.1744L27.99999 505.1744z" stroke="none" fill="#E0E0E0" fill-rule="winding" /><path transform="matrix(1 0 0 -1 0 840)" d="M114.3301 505.9252L115.0807 505.9252L115.0807 505.9252L115.0807 475.8973L115.0807 475.8973L114.3301 475.8973z" stroke="none" fill="#E0E0E0" fill-rule="winding" /><path transform="matrix(1 0 0 -1 0 840)" d="M27.99999 505.9252L28.75069 505.9252L28.75069 505.9252L28.75069 475.8973L28.75069 475.8973L27.99999 475.8973z" stroke="none" fill="#E0E0E0" fill-rule="winding" /><path transform="matrix(1 0 0 -1 0 840)" d="M66.2855 496.9169L76.79524 496.9169L76.79524 496.9169L76.79524 484.9056L76.79524 484.9056L66.2855 484.9056z" stroke="none" fill="#F9F2F4" fill-rule="winding" /><path transform="matrix(1 0 0 -1 0 840)" d="M115.0807 505.9252L478.4177 505.9252L478.4177 505.9252L478.4177 475.8973L478.4177 475.8973L115.0807 475.8973z" stroke="none" fill="#FFFFFF" fill-rule="winding" fill-opacity="0.3019608" /><path transform="matrix(1 0 0 -1 0 840)" d="M115.0807 505.9252L478.4177 505.9252L478.4177 505.9252L478.4177 505.1744L478.4177 505.1744L115.0807 505.1744z" stroke="none" fill="#E0E0E0" fill-rule="winding" /><path transform="matrix(1 0 0 -1 0 840)" d="M477.667 505.9252L478.4177 505.9252L478.4177 505.9252L478.4177 475.8973L478.4177 475.8973L477.667 475.8973z" stroke="none" fill="#E0E0E0" fill-rule="winding" /><path transform="matrix(1 0 0 -1 0 840)" d="M171.383 494.6647L299.0013 494.6647L299.0013 494.6647L299.0013 482.6536L299.0013 482.6536L171.383 482.6536z" stroke="none" fill="#F9F2F4" fill-rule="winding" /><path transform="matrix(1 0 0 -1 0 840)" d="M27.99999 475.8973L115.0807 475.8973L115.0807 475.8973L115.0807 445.8695L115.0807 445.8695L27.99999 445.8695z" stroke="none" fill="#FFFFFF" fill-rule="winding" fill-opacity="0.3019608" /><path transform="matrix(1 0 0 -1 0 840)" d="M27.99999 475.8973L115.0807 475.8973L115.0807 475.8973L115.0807 475.1466L115.0807 475.1466L27.99999 475.1466z" stroke="none" fill="#E0E0E0" fill-rule="winding" /><path transform="matrix(1 0 0 -1 0 840)" d="M114.3301 475.8973L115.0807 475.8973L115.0807 475.8973L115.0807 445.8695L115.0807 445.8695L114.3301 445.8695z" stroke="none" fill="#E0E0E0" fill-rule="winding" /><path transform="matrix(1 0 0 -1 0 840)" d="M27.99999 475.8973L28.75069 475.8973L28.75069 475.8973L28.75069 445.8695L28.75069 445.8695L27.99999 445.8695z" stroke="none" fill="#E0E0E0" fill-rule="winding" /><path transform="matrix(1 0 0 -1 0 840)" d="M66.2855 466.8889L76.79524 466.8889L76.79524 466.8889L76.79524 454.8778L76.79524 454.8778L66.2855 454.8778z" stroke="none" fill="#F9F2F4" fill-rule="winding" /><path transform="matrix(1 0 0 -1 0 840)" d="M115.0807 475.8973L478.4177 475.8973L478.4177 475.8973L478.4177 445.8695L478.4177 445.8695L115.0807 445.8695z" stroke="none" fill="#FFFFFF" fill-rule="winding" fill-opacity="0.3019608" /><path transform="matrix(1 0 0 -1 0 840)" d="M115.0807 475.8973L478.4177 475.8973L478.4177 475.8973L478.4177 475.1466L478.4177 475.1466L115.0807 475.1466z" stroke="none" fill="#E0E0E0" fill-rule="winding" /><path transform="matrix(1 0 0 -1 0 840)" d="M477.667 475.8973L478.4177 475.8973L478.4177 475.8973L478.4177 445.8695L478.4177 445.8695L477.667 445.8695z" stroke="none" fill="#E0E0E0" fill-rule="winding" /><path transform="matrix(1 0 0 -1 0 840)" d="M181.8927 464.6368L261.4665 464.6368L261.4665 464.6368L261.4665 452.6257L261.4665 452.6257L181.8927 452.6257z" stroke="none" fill="#F9F2F4" fill-rule="winding" /><path transform="matrix(1 0 0 -1 0 840)" d="M27.99999 445.8695L115.0807 445.8695L115.0807 445.8695L115.0807 415.8417L115.0807 415.8417L27.99999 415.8417z" stroke="none" fill="#FFFFFF" fill-rule="winding" fill-opacity="0.3019608" /><path transform="matrix(1 0 0 -1 0 840)" d="M27.99999 445.8695L115.0807 445.8695L115.0807 445.8695L115.0807 445.1188L115.0807 445.1188L27.99999 445.1188z" stroke="none" fill="#E0E0E0" fill-rule="winding" /><path transform="matrix(1 0 0 -1 0 840)" d="M114.3301 445.8695L115.0807 445.8695L115.0807 445.8695L115.0807 415.8417L115.0807 415.8417L114.3301 415.8417z" stroke="none" fill="#E0E0E0" fill-rule="winding" /><path transform="matrix(1 0 0 -1 0 840)" d="M27.99999 445.8695L28.75069 445.8695L28.75069 445.8695L28.75069 415.8417L28.75069 415.8417L27.99999 415.8417z" stroke="none" fill="#E0E0E0" fill-rule="winding" /><path transform="matrix(1 0 0 -1 0 840)" d="M66.2855 436.8611L76.79524 436.8611L76.79524 436.8611L76.79524 424.85L76.79524 424.85L66.2855 424.85z" stroke="none" fill="#F9F2F4" fill-rule="winding" /><path transform="matrix(1 0 0 -1 0 840)" d="M115.0807 445.8695L478.4177 445.8695L478.4177 445.8695L478.4177 415.8417L478.4177 415.8417L115.0807 415.8417z" stroke="none" fill="#FFFFFF" fill-rule="winding" fill-opacity="0.3019608" /><path transform="matrix(1 0 0 -1 0 840)" d="M115.0807 445.8695L478.4177 445.8695L478.4177 445.8695L478.4177 445.1188L478.4177 445.1188L115.0807 445.1188z" stroke="none" fill="#E0E0E0" fill-rule="winding" /><path transform="matrix(1 0 0 -1 0 840)" d="M477.667 445.8695L478.4177 445.8695L478.4177 445.8695L478.4177 415.8417L478.4177 415.8417L477.667 415.8417z" stroke="none" fill="#E0E0E0" fill-rule="winding" /><path transform="matrix(1 0 0 -1 0 840)" d="M171.383 434.609L407.1016 434.609L407.1016 434.609L407.1016 422.5979L407.1016 422.5979L171.383 422.5979z" stroke="none" fill="#F9F2F4" fill-rule="winding" /><path transform="matrix(1 0 0 -1 0 840)" d="M27.99999 415.8417L115.0807 415.8417L115.0807 415.8417L115.0807 390.318L115.0807 390.318L27.99999 390.318z" stroke="none" fill="#FFFFFF" fill-rule="winding" fill-opacity="0.3019608" /><path transform="matrix(1 0 0 -1 0 840)" d="M27.99999 415.8417L115.0807 415.8417L115.0807 415.8417L115.0807 415.0909L115.0807 415.0909L27.99999 415.0909z" stroke="none" fill="#E0E0E0" fill-rule="winding" /><path transform="matrix(1 0 0 -1 0 840)" d="M114.3301 415.8417L115.0807 415.8417L115.0807 415.8417L115.0807 390.318L115.0807 390.318L114.3301 390.318z" stroke="none" fill="#E0E0E0" fill-rule="winding" /><path transform="matrix(1 0 0 -1 0 840)" d="M27.99999 415.8417L28.75069 415.8417L28.75069 415.8417L28.75069 390.318L28.75069 390.318L27.99999 390.318z" stroke="none" fill="#E0E0E0" fill-rule="winding" /><path transform="matrix(1 0 0 -1 0 840)" d="M66.2855 409.0853L76.79524 409.0853L76.79524 409.0853L76.79524 397.0742L76.79524 397.0742L66.2855 397.0742z" stroke="none" fill="#F9F2F4" fill-rule="winding" /><path transform="matrix(1 0 0 -1 0 840)" d="M115.0807 415.8417L478.4177 415.8417L478.4177 415.8417L478.4177 390.318L478.4177 390.318L115.0807 390.318z" stroke="none" fill="#FFFFFF" fill-rule="winding" fill-opacity="0.3019608" /><path transform="matrix(1 0 0 -1 0 840)" d="M115.0807 415.8417L478.4177 415.8417L478.4177 415.8417L478.4177 415.0909L478.4177 415.0909L115.0807 415.0909z" stroke="none" fill="#E0E0E0" fill-rule="winding" /><path transform="matrix(1 0 0 -1 0 840)" d="M477.667 415.8417L478.4177 415.8417L478.4177 415.8417L478.4177 390.318L478.4177 390.318L477.667 390.318z" stroke="none" fill="#E0E0E0" fill-rule="winding" /><path transform="matrix(1 0 0 -1 0 840)" d="M181.8927 406.8333L326.0264 406.8333L326.0264 406.8333L326.0264 394.8221L326.0264 394.8221L181.8927 394.8221z" stroke="none" fill="#F9F2F4" fill-rule="winding" /></g><g clip-path="url(#5)"><path transform="matrix(1 0 0 -1 0 840)" d="M27.99999 70.52136L493.4316 70.52136L493.4316 70.52136L493.4316 69.77063L493.4316 69.77063L27.99999 69.77063z" stroke="none" fill="#E0E0E0" fill-rule="winding" /><path transform="matrix(1 0 0 -1 0 840)" d="M27.99999 250.6885L260.7158 250.6885L260.7158 250.6885L260.7158 220.6606L260.7158 220.6606L27.99999 220.6606z" stroke="none" fill="#FFFFFF" fill-rule="winding" fill-opacity="0.3019608" /><path transform="matrix(1 0 0 -1 0 840)" d="M27.99999 250.6885L260.7158 250.6885L260.7158 250.6885L260.7158 249.9377L260.7158 249.9377L27.99999 249.9377z" stroke="none" fill="#E0E0E0" fill-rule="winding" /><path transform="matrix(1 0 0 -1 0 840)" d="M259.9651 250.6885L260.7158 250.6885L260.7158 250.6885L260.7158 220.6606L260.7158 220.6606L259.9651 220.6606z" stroke="none" fill="#E0E0E0" fill-rule="winding" /><path transform="matrix(1 0 0 -1 0 840)" d="M27.99999 250.6885L28.75069 250.6885L28.75069 250.6885L28.75069 220.6606L28.75069 220.6606L27.99999 220.6606z" stroke="none" fill="#E0E0E0" fill-rule="winding" /><path transform="matrix(1 0 0 -1 0 840)" d="M260.7158 250.6885L493.4316 250.6885L493.4316 250.6885L493.4316 220.6606L493.4316 220.6606L260.7158 220.6606z" stroke="none" fill="#FFFFFF" fill-rule="winding" fill-opacity="0.3019608" /><path transform="matrix(1 0 0 -1 0 840)" d="M260.7158 250.6885L493.4316 250.6885L493.4316 250.6885L493.4316 249.9377L493.4316 249.9377L260.7158 249.9377z" stroke="none" fill="#E0E0E0" fill-rule="winding" /><path transform="matrix(1 0 0 -1 0 840)" d="M492.6809 250.6885L493.4316 250.6885L493.4316 250.6885L493.4316 220.6606L493.4316 220.6606L492.6809 220.6606z" stroke="none" fill="#E0E0E0" fill-rule="winding" /><path transform="matrix(1 0 0 -1 0 840)" d="M27.99999 220.6606L260.7158 220.6606L260.7158 220.6606L260.7158 190.6327L260.7158 190.6327L27.99999 190.6327z" stroke="none" fill="#FFFFFF" fill-rule="winding" fill-opacity="0.3019608" /><path transform="matrix(1 0 0 -1 0 840)" d="M27.99999 220.6606L260.7158 220.6606L260.7158 220.6606L260.7158 219.9099L260.7158 219.9099L27.99999 219.9099z" stroke="none" fill="#E0E0E0" fill-rule="winding" /><path transform="matrix(1 0 0 -1 0 840)" d="M259.9651 220.6606L260.7158 220.6606L260.7158 220.6606L260.7158 190.6327L260.7158 190.6327L259.9651 190.6327z" stroke="none" fill="#E0E0E0" fill-rule="winding" /><path transform="matrix(1 0 0 -1 0 840)" d="M27.99999 220.6606L28.75069 220.6606L28.75069 220.6606L28.75069 190.6327L28.75069 190.6327L27.99999 190.6327z" stroke="none" fill="#E0E0E0" fill-rule="winding" /><path transform="matrix(1 0 0 -1 0 840)" d="M260.7158 220.6606L493.4316 220.6606L493.4316 220.6606L493.4316 190.6327L493.4316 190.6327L260.7158 190.6327z" stroke="none" fill="#FFFFFF" fill-rule="winding" fill-opacity="0.3019608" /><path transform="matrix(1 0 0 -1 0 840)" d="M260.7158 220.6606L493.4316 220.6606L493.4316 220.6606L493.4316 219.9099L493.4316 219.9099L260.7158 219.9099z" stroke="none" fill="#E0E0E0" fill-rule="winding" /><path transform="matrix(1 0 0 -1 0 840)" d="M492.6809 220.6606L493.4316 220.6606L493.4316 220.6606L493.4316 190.6327L493.4316 190.6327L492.6809 190.6327z" stroke="none" fill="#E0E0E0" fill-rule="winding" /><path transform="matrix(1 0 0 -1 0 840)" d="M27.99999 190.6327L260.7158 190.6327L260.7158 190.6327L260.7158 160.6049L260.7158 160.6049L27.99999 160.6049z" stroke="none" fill="#FFFFFF" fill-rule="winding" fill-opacity="0.3019608" /><path transform="matrix(1 0 0 -1 0 840)" d="M27.99999 190.6327L260.7158 190.6327L260.7158 190.6327L260.7158 189.8821L260.7158 189.8821L27.99999 189.8821z" stroke="none" fill="#E0E0E0" fill-rule="winding" /><path transform="matrix(1 0 0 -1 0 840)" d="M259.9651 190.6327L260.7158 190.6327L260.7158 190.6327L260.7158 160.6049L260.7158 160.6049L259.9651 160.6049z" stroke="none" fill="#E0E0E0" fill-rule="winding" /><path transform="matrix(1 0 0 -1 0 840)" d="M27.99999 190.6327L28.75069 190.6327L28.75069 190.6327L28.75069 160.6049L28.75069 160.6049L27.99999 160.6049z" stroke="none" fill="#E0E0E0" fill-rule="winding" /><path transform="matrix(1 0 0 -1 0 840)" d="M260.7158 190.6327L493.4316 190.6327L493.4316 190.6327L493.4316 160.6049L493.4316 160.6049L260.7158 160.6049z" stroke="none" fill="#FFFFFF" fill-rule="winding" fill-opacity="0.3019608" /><path transform="matrix(1 0 0 -1 0 840)" d="M260.7158 190.6327L493.4316 190.6327L493.4316 190.6327L493.4316 189.8821L493.4316 189.8821L260.7158 189.8821z" stroke="none" fill="#E0E0E0" fill-rule="winding" /><path transform="matrix(1 0 0 -1 0 840)" d="M492.6809 190.6327L493.4316 190.6327L493.4316 190.6327L493.4316 160.6049L493.4316 160.6049L492.6809 160.6049z" stroke="none" fill="#E0E0E0" fill-rule="winding" /><path transform="matrix(1 0 0 -1 0 840)" d="M264.4693 183.1257L344.7938 183.1257L344.7938 183.1257L344.7938 167.3612L344.7938 167.3612L264.4693 167.3612z" stroke="none" fill="#FFFFFF" fill-rule="winding" /><path transform="matrix(1 0 0 -1 0 840)" d="M27.99999 160.6049L260.7158 160.6049L260.7158 160.6049L260.7158 130.577L260.7158 130.577L27.99999 130.577z" stroke="none" fill="#FFFFFF" fill-rule="winding" fill-opacity="0.3019608" /><path transform="matrix(1 0 0 -1 0 840)" d="M27.99999 160.6049L260.7158 160.6049L260.7158 160.6049L260.7158 159.8542L260.7158 159.8542L27.99999 159.8542z" stroke="none" fill="#E0E0E0" fill-rule="winding" /><path transform="matrix(1 0 0 -1 0 840)" d="M259.9651 160.6049L260.7158 160.6049L260.7158 160.6049L260.7158 130.577L260.7158 130.577L259.9651 130.577z" stroke="none" fill="#E0E0E0" fill-rule="winding" /><path transform="matrix(1 0 0 -1 0 840)" d="M27.99999 160.6049L28.75069 160.6049L28.75069 160.6049L28.75069 130.577L28.75069 130.577L27.99999 130.577z" stroke="none" fill="#E0E0E0" fill-rule="winding" /><path transform="matrix(1 0 0 -1 0 840)" d="M260.7158 160.6049L493.4316 160.6049L493.4316 160.6049L493.4316 130.577L493.4316 130.577L260.7158 130.577z" stroke="none" fill="#FFFFFF" fill-rule="winding" fill-opacity="0.3019608" /><path transform="matrix(1 0 0 -1 0 840)" d="M260.7158 160.6049L493.4316 160.6049L493.4316 160.6049L493.4316 159.8542L493.4316 159.8542L260.7158 159.8542z" stroke="none" fill="#E0E0E0" fill-rule="winding" /><path transform="matrix(1 0 0 -1 0 840)" d="M492.6809 160.6049L493.4316 160.6049L493.4316 160.6049L493.4316 130.577L493.4316 130.577L492.6809 130.577z" stroke="none" fill="#E0E0E0" fill-rule="winding" /><path transform="matrix(1 0 0 -1 0 840)" d="M264.4693 153.0979L309.5111 153.0979L309.5111 153.0979L309.5111 137.3333L309.5111 137.3333L264.4693 137.3333z" stroke="none" fill="#FFFFFF" fill-rule="winding" /><path transform="matrix(1 0 0 -1 0 840)" d="M27.99999 130.577L260.7158 130.577L260.7158 130.577L260.7158 100.5492L260.7158 100.5492L27.99999 100.5492z" stroke="none" fill="#FFFFFF" fill-rule="winding" fill-opacity="0.3019608" /><path transform="matrix(1 0 0 -1 0 840)" d="M27.99999 130.577L260.7158 130.577L260.7158 130.577L260.7158 129.8263L260.7158 129.8263L27.99999 129.8263z" stroke="none" fill="#E0E0E0" fill-rule="winding" /><path transform="matrix(1 0 0 -1 0 840)" d="M259.9651 130.577L260.7158 130.577L260.7158 130.577L260.7158 100.5492L260.7158 100.5492L259.9651 100.5492z" stroke="none" fill="#E0E0E0" fill-rule="winding" /><path transform="matrix(1 0 0 -1 0 840)" d="M27.99999 130.577L28.75069 130.577L28.75069 130.577L28.75069 100.5492L28.75069 100.5492L27.99999 100.5492z" stroke="none" fill="#E0E0E0" fill-rule="winding" /><path transform="matrix(1 0 0 -1 0 840)" d="M260.7158 130.577L493.4316 130.577L493.4316 130.577L493.4316 100.5492L493.4316 100.5492L260.7158 100.5492z" stroke="none" fill="#FFFFFF" fill-rule="winding" fill-opacity="0.3019608" /><path transform="matrix(1 0 0 -1 0 840)" d="M260.7158 130.577L493.4316 130.577L493.4316 130.577L493.4316 129.8263L493.4316 129.8263L260.7158 129.8263z" stroke="none" fill="#E0E0E0" fill-rule="winding" /><path transform="matrix(1 0 0 -1 0 840)" d="M492.6809 130.577L493.4316 130.577L493.4316 130.577L493.4316 100.5492L493.4316 100.5492L492.6809 100.5492z" stroke="none" fill="#E0E0E0" fill-rule="winding" /><path transform="matrix(1 0 0 -1 0 840)" d="M264.4693 123.0701L330.5305 123.0701L330.5305 123.0701L330.5305 107.3054L330.5305 107.3054L264.4693 107.3054z" stroke="none" fill="#FFFFFF" fill-rule="winding" /><path transform="matrix(1 0 0 -1 0 840)" d="M27.99999 100.5492L260.7158 100.5492L260.7158 100.5492L260.7158 70.52136L260.7158 70.52136L27.99999 70.52136z" stroke="none" fill="#FFFFFF" fill-rule="winding" fill-opacity="0.3019608" /><path transform="matrix(1 0 0 -1 0 840)" d="M27.99999 100.5492L260.7158 100.5492L260.7158 100.5492L260.7158 99.79846L260.7158 99.79846L27.99999 99.79846z" stroke="none" fill="#E0E0E0" fill-rule="winding" /><path transform="matrix(1 0 0 -1 0 840)" d="M259.9651 100.5492L260.7158 100.5492L260.7158 100.5492L260.7158 70.52136L260.7158 70.52136L259.9651 70.52136z" stroke="none" fill="#E0E0E0" fill-rule="winding" /><path transform="matrix(1 0 0 -1 0 840)" d="M27.99999 100.5492L28.75069 100.5492L28.75069 100.5492L28.75069 70.52136L28.75069 70.52136L27.99999 70.52136z" stroke="none" fill="#E0E0E0" fill-rule="winding" /><path transform="matrix(1 0 0 -1 0 840)" d="M260.7158 100.5492L493.4316 100.5492L493.4316 100.5492L493.4316 70.52136L493.4316 70.52136L260.7158 70.52136z" stroke="none" fill="#FFFFFF" fill-rule="winding" fill-opacity="0.3019608" /><path transform="matrix(1 0 0 -1 0 840)" d="M260.7158 100.5492L493.4316 100.5492L493.4316 100.5492L493.4316 99.79846L493.4316 99.79846L260.7158 99.79846z" stroke="none" fill="#E0E0E0" fill-rule="winding" /><path transform="matrix(1 0 0 -1 0 840)" d="M492.6809 100.5492L493.4316 100.5492L493.4316 100.5492L493.4316 70.52136L493.4316 70.52136L492.6809 70.52136z" stroke="none" fill="#E0E0E0" fill-rule="winding" /><path transform="matrix(1 0 0 -1 0 840)" d="M264.4693 93.04224L374.071 93.04224L374.071 93.04224L374.071 77.27759L374.071 77.27759L264.4693 77.27759z" stroke="none" fill="#FFFFFF" fill-rule="winding" /></g></g></g></g></svg>